<svg xmlns="http://www.w3.org/2000/svg" viewBox="0 0 662.01 455"><defs><style>.cls-1{fill:#231f20;}</style></defs><title>Asset 1</title><g id="Layer_2" data-name="Layer 2"><g id="Layer_1-2" data-name="Layer 1"><path class="cls-1" d="M415.32,46.16c-1.72-.35-2-1-2.46-4.3,0-2.1-.09-4.19-.07-6.29a9.68,9.68,0,0,1,1.46-5c1.63-2.64,3.73-5,5.22-7.68.86-1.57,2.34-2.86,2.48-4.75.31-4.23.57-8.46.71-12.69a38.49,38.49,0,0,1,.8-5.44h-.86l-.78,4.06c.15,2.09-.8,4.07-.35,6.26a8.74,8.74,0,0,1-.3,4.61c0,.95,0,1.9,0,2.84a1.92,1.92,0,0,1-.23,1.09c-2.43,2.85-3.89,6.32-6.09,9.32A6.64,6.64,0,0,1,414,29a16.89,16.89,0,0,0-2.06,9.32,23.27,23.27,0,0,0,1,7.3,4,4,0,0,1-.52,3.42,84,84,0,0,1-6,9.53,3.19,3.19,0,0,0-.83,1.76l1.5-.58a11.75,11.75,0,0,1,.66-1c-.26-.36-.09-.72.5-1.07.15-.31,0-.88.6-.84-.1-.25.08-.34.25-.43a1.67,1.67,0,0,1,.21-.52c.41-.45.51-1.36,1.27-1.3a5,5,0,0,1,.85-1.67l-.15,0,0-.23c.23-.56.47-1.07,1-.91a4.77,4.77,0,0,1,1-1.59,4.94,4.94,0,0,1,1.46-2.72v0a5.09,5.09,0,0,1,.52-1.12h0S415.32,46.21,415.32,46.16Z"/><path class="cls-1" d="M131.84,65l-.53,0a7.53,7.53,0,0,1-3.14,1.76l-1.29.58c-5.06,2.19-10.2,4.19-15,6.87a28.25,28.25,0,0,1-4.57,2.32,5.08,5.08,0,0,1-1.8,1,.8.8,0,0,1-.23.08,2,2,0,0,1-1.16.57h0a5.44,5.44,0,0,1-2.89,1.08l-.52.12C94.81,81.18,89,82.64,82.73,81.8c-4-.54-8.17-.49-12.25-.71-.66,0-1.32-.12-2-.19l-3.76-.23-.44,0a58.86,58.86,0,0,1-22.7-4.09l-3.48-.63C37,76.1,36,75.58,35,75.42l-.31-.07a65.66,65.66,0,0,1-9.42-1.68c-1.94-.63-3.89-1.25-5.83-1.89-1.67-.56-3.31-1.29-5-1.81-.75-.16-1.5-.35-2.24-.53A85.54,85.54,0,0,0,0,68.81v.57c4,.4,8,.23,11.93.84a15.7,15.7,0,0,1,4.45,1.43c1,.56,2.34.05,3.16,1.1.59.15,1.21.25,1.78.46A71.65,71.65,0,0,0,33.56,76c1.31.18,2.62.42,3.94.53a3.9,3.9,0,0,1,1.81.69,4.67,4.67,0,0,1,1.12,0c2.75.73,5.47,1.53,8.23,2.22s5.16,1.59,7.9,1.78c4.84.34,9.7.24,14.53.82,2.81-.13,5.6.1,8.4.2.43,0,.85.08,1.28.12a14.61,14.61,0,0,1,3.32,0h1.59l.35.1c2.75.19,5.49.49,8.2-.44,1.52-.52,3.12-.79,4.69-1.17a22.17,22.17,0,0,1,4.33-1.4c3.1-1,5.88-2.66,8.85-3.93l4.64-2.21c.43-.41,1.17-.4,1.41-1.06l-1.95.66c-.28.15-.48.47-.89.38.11-.38.48-.39.74-.55.73-.4,1.46-.81,2.2-1.2.56-.29.51.07.45.43,2.92-.89,5.51-2.52,8.29-3.72a22.86,22.86,0,0,0,5.1-3Z"/><path class="cls-1" d="M408.84,455l4.85-9.73.92-2,.41-.91a5.89,5.89,0,0,0,1-2c.8-1.55,1.62-3.09,2.4-4.64.2-.39.57-.8.17-1.3a9,9,0,0,0,1.65-2.63,1.33,1.33,0,0,0-.13-1.46,2.77,2.77,0,0,1,.18-3.77l1.45.84.17,1.27,6.13-12.46h0c.54-.64.71-1.51,1.37-2.06l.15.12c-1.14,3-2.91,5.76-4.28,8.67-1.7,3.61-3.51,7.17-5.27,10.75l0,.28h0a.53.53,0,0,0-.29.58h0a.52.52,0,0,0-.29.58h0a.52.52,0,0,0-.29.59h0a.52.52,0,0,0-.29.59h0a.51.51,0,0,0-.29.58h0a.49.49,0,0,0-.29.58h0a.48.48,0,0,0-.29.58v0c-2.13,3.57-3.75,7.4-5.65,11.09A51.87,51.87,0,0,0,409.7,455Z"/><path class="cls-1" d="M306.05,6.2c2.36-.26,4.21-1.78,6.35-2.59,2.54-1.18,5.23-2,7.57-3.61h1.15L318.8,1.43l-.61.35L317,2.24c-3,1.23-5.79,2.93-8.8,3.94-8.23,2.77-17,3.93-24.94,7.61l.35-.56c2.62-2.15,6-2.23,9-3.21s6.2-1.82,9.3-2.72a12.53,12.53,0,0,0,2.82-.77.75.75,0,0,0,.26-.11,1.22,1.22,0,0,0,.94-.21Z"/><path class="cls-1" d="M145.71,12.35c-1-1.16-1.44-2.71-2.71-3.66l-.29-.33L140.8,6.29c-1-1-1.91-2-2.92-2.92a6,6,0,0,1-2-3.36h-.57a9.58,9.58,0,0,0,1.36,2.79c3.28,3.55,7,6.73,9.28,11.11,0,.07.15.11.23.16h0l-.07-.37A5.43,5.43,0,0,1,145.71,12.35Z"/><path class="cls-1" d="M343.76,455a75.87,75.87,0,0,0-7.17-3.42c-2.88-1.37-5.8-2.65-8.7-4a.65.65,0,0,1-.48-.67l4.3,1.78,12.12,5.63a2.31,2.31,0,0,1,1.08.64Z"/><path class="cls-1" d="M190.66,0c.29,2.73-.55,5.32-1,8-.19,1.07-.26,2.16-.4,3.23,0,.35,0,.81-.56.81l1.12-8,.28-4Z"/><path class="cls-1" d="M0,322c.72,0,1.23-.79,2-.56a4.46,4.46,0,0,1-2,1.14Z"/><path class="cls-1" d="M193,453.85c.25.47-.49.69-.3,1.15h-.86Z"/><path class="cls-1" d="M127.06,120.5l1.11-.92a45.85,45.85,0,0,0,6.46-6.42,30.83,30.83,0,0,1,6.16-5.23,2.09,2.09,0,0,0,1.29-1.39,76.26,76.26,0,0,1,2.81-7.23l1.62-2.68c.37-.75.73-1.5,1.12-2.23.2-.39.23-1,.89-.91l0,0c-.89,1.32-.91,3.06-2,4.26l-.57.9a37.93,37.93,0,0,0-3.16,7.61,3.38,3.38,0,0,1-1.58,2.09c-3.41,1.94-5.9,4.89-8.45,7.77h0a.29.29,0,0,0-.3.3l0,0a.29.29,0,0,0-.3.3l0,0a.3.3,0,0,0-.3.3l0,0a.3.3,0,0,0-.3.3l0,0-.3.31v0c-.21.14-.41.28-.3.58h0c-.23,0-.32.07-.3.29h0a.37.37,0,0,0-.43.3l-.09,0-.08.08a20.19,20.19,0,0,1-3.57,2.69l-.14-.15Z"/><path class="cls-1" d="M104.42,140.58c2.52-2.23,3.45-5.4,4.76-8.31a6.11,6.11,0,0,1,2.75-3.41,27.93,27.93,0,0,0,3.61-2.28,18.09,18.09,0,0,1,7.46-3.34c.88-.15,1.47-.83,2.27-1.13l.19.2c-1.41,1.47-3.42,1.47-5.16,2.14a12.31,12.31,0,0,0-4.91,3.1c-.26-.07-.42,0-.45.29v-.1h-.1a20.09,20.09,0,0,0-3.3,2,2.78,2.78,0,0,0-1.43,1.51,59.42,59.42,0,0,1-3.2,7,5.84,5.84,0,0,1-2.2,2.56Z"/><path class="cls-1" d="M98.91,144.71c-2.11.95-4.53,1.41-5.84,3.65-.12.21-.47.27-.72.41a4,4,0,0,1,2.28-2.7c3.35-1.67,6.93-2.94,9.79-5.48l.28.24-2.8,2.48A11.29,11.29,0,0,0,98.91,144.71Z"/><path class="cls-1" d="M90.53,157.67c.15-.43,0-1,.51-1.46a3,3,0,0,1,0,1.68c-.28,1.88-.56,3.77-.91,5.64-.05.28.24,1.15-.68.74Z"/><path class="cls-1" d="M90.41,155.58c-.47-1-1-2,.74-2.26.51-.08.27-.5.29-.8l.29-.07a3.41,3.41,0,0,1,.24,2.86C91.85,156,91,155.71,90.41,155.58Zm1.08-1.1c0-.29,0-.7-.49-.63-.32,0-.4.36-.41.66s.1.73.47.74S91.48,154.83,91.49,154.47Z"/><path class="cls-1" d="M125.28,122.12a2,2,0,0,1,1.14-.86l.14.15-1.09.91Z"/><path class="cls-1" d="M527.41,76.84l.09,0,3.43-1.81c.44-.2.94-.31,1.2-.79h0c.23,0,.47,0,.58-.29h0c.23,0,.47,0,.58-.29h0c.22-.05.49,0,.6-.29h0c.25,0,.48,0,.59-.3h0c.25,0,.48,0,.59-.3h0c.25,0,.48,0,.59-.29h0a1.47,1.47,0,0,0,1.16-.58h0a3.19,3.19,0,0,0,1.73-.87h0a.58.58,0,0,0,.59-.29h0a.59.59,0,0,0,.59-.29h0a.6.6,0,0,0,.59-.29h0a.93.93,0,0,0,.87-.58h0a.51.51,0,0,0,.59-.3h0c.22-.05.48,0,.6-.3h0c.32,0,.67.06.88-.29h0l.53-.08,1.35-.68a2,2,0,0,0,.17.22l-.69.71-.57.3a1.14,1.14,0,0,0-.84.31l-.59.27-.57.29-.57.28-.56.31-.58.28-.57.29-.57.3-.57.29-.57.29a38.08,38.08,0,0,0-4.93,2.52l-.32.16-.81.43-.57.3-.56.3-.57.3a5.73,5.73,0,0,0-1.41.66c-2.59,2.25-5.64,3.84-8.36,5.91-.28.19-.65.28-.8.64h0a5.37,5.37,0,0,0-2.15,1.45l0,0c-2.4.6-4.67,1.56-7,2.36-3,1-5.93,2.51-9.23,2.75-1.7.12-3.43-.12-5.1.39l-.63,0h-8l-.84-.06c-2.25-.18-4.5-.4-6.75-.51a3.52,3.52,0,0,0-2.35.23l-.26,0-.38-.24-.33-.07c-4.67-.35-9.34-.76-14-.77l-.89-.1a37,37,0,0,0-8.59-.24,26.37,26.37,0,0,0-5.49.31h-.87a1.12,1.12,0,0,0-.95.18,67.81,67.81,0,0,0-7.45.57,20.41,20.41,0,0,0-9.15,1.81,78.5,78.5,0,0,0-10,5.69.39.39,0,0,0-.24.07l-.27.25h0l-.24,0c-.6.32-.3.89-.35,1.36s.11,1.12-.4,1.54h-2.2l-1.34,0c-.7,0-.89.65-1.26,1l-.28.28-.29.29-1.72,1.73-.28.28-.29.29c-1.15.85-1.9,2.15-3.15,2.89-.28-.56.47-.69.49-1.13a.8.8,0,0,0,.7-.71.39.39,0,0,0,.3-.44v0c.22,0,.32-.08.3-.3h0c.22,0,.32-.09.3-.3v0a2.4,2.4,0,0,0,1.28-1.16l.12,0v-.12a.44.44,0,0,0,.31-.44v0c.21,0,.31-.09.3-.3v0c.39,0,.49-.3.58-.59v0l.23-.28a2,2,0,0,0-.21-2.81,11.72,11.72,0,0,1-1.35-1.84q-4-6.62-7.94-13.23C400.4,80.7,398,78,398.23,74.24v-.56a8.1,8.1,0,0,1,.82-2.27c1.08-2,2.12-4,3.18-6,.21-.88.94-1.45,1.3-2.24.31-.47.61-.94.93-1.4s.3-1,1-.64c-.25,1-1.13,1.76-1.25,2.83a79.08,79.08,0,0,0-5.08,9.19,2.91,2.91,0,0,0-.14,1.53,12,12,0,0,0,2.95,7c.21.43.38.87.62,1.28q4.06,6.79,8.15,13.56c.42.69.64,2,1.85.64.16-.18.64-.11,1-.12l3.56-.06c2-.28,3.51-1.62,5.22-2.49,1.92-1,3.66-2.4,5.66-3.15a75.86,75.86,0,0,1,7.85-2.1c5.47-.29,10.93-.71,16.36-1.46,1.5.27,3-.39,4.5,0,1.84.43,3.75.14,5.62.21.62.61,1.28.22,1.94.1a11.84,11.84,0,0,0,3,.23.1.1,0,0,0,.11.1l.32.17.88.05.34-.2c2.11.66,4.31.18,6.44.49,2.54.38,5.12.08,7.64.59a2.24,2.24,0,0,0,.81-.16c6,1,12.1.12,18.15.13a8.86,8.86,0,0,0,4.64-1.59c.85.23,1.37-.61,2.13-.65l.58-.13a25.18,25.18,0,0,0,5.11-1.88c1.47-.16,2.43-1.27,3.61-2A43.61,43.61,0,0,0,524.09,79a.76.76,0,0,0,.59-.44v0a2.63,2.63,0,0,0,1.73-1.15h0c.18,0,.3-.1.3-.3l0,0A.74.74,0,0,0,527.41,76.84Z"/><path class="cls-1" d="M547.43,66.06a71.07,71.07,0,0,0,8.68-8.34,29.2,29.2,0,0,0,5-9h0c.73-.54.84-1.43,1.4-2.35-1.71.36-1.27-.84-1.45-1.6C561,43.4,561.6,42.85,563,43c.6,0,1.33.34,1.82-.37l.3-.43h0c.33-.08.28-.34.28-.58h0a1.26,1.26,0,0,0,.85-.82l.42-.34.17-.23.28-.33h0l.84-.31c-.54.83-1.09,1.66-1.62,2.51-.14.22-.51.47,0,.75,1.39.74.75,2,.64,3s-1.17.42-1.81.58a3,3,0,0,1-.42,0c-.26-.06-.46,0-.54.27v.12l-.27.44a.29.29,0,0,0,0,.19,1.1,1.1,0,0,0-.28,1v0l-.26.31a.13.13,0,0,0,0,.14,2.27,2.27,0,0,0-.59,1.33l0,.09a3.87,3.87,0,0,0-.87,1.88h0c-.84.8-.66,2.21-1.71,2.88-.06-1.26.76-2.21,1.19-3.3a17.88,17.88,0,0,0,1.48-4,19.5,19.5,0,0,0-2.94,5,22.62,22.62,0,0,1-3,5.14l-.19.22c-.18.18-.4.35-.29.65v0c-.71.08-.87.56-.87,1.17v0c-.71.06-.94.62-1.2,1.16l-.24.25c-.19.16-.41.3-.3.61l0,0c-.31-.1-.48.11-.66.29a.22.22,0,0,0-.2.14l-1,.72a.23.23,0,0,0-.19.15,2.3,2.3,0,0,0-1.15,1h0c-1.2.45-1.93,1.58-3.09,2.09ZM563.6,46.81l-.12-.27a1.44,1.44,0,0,0-.29.23s.06.15.09.23Z"/><path class="cls-1" d="M544.9,68.07a11.83,11.83,0,0,1,2.53-2l.23.23c-.14.4-.85.49-.61,1.1-.66-.24-.92.16-1.16.68.74.27,1.15.11,1.14-.7.74.14.88-.72,1.44-.88a6.12,6.12,0,0,0,.67,4.65,2.75,2.75,0,0,0,3.35,2c-1,.59-1.12,1.76-1.73,2.6l-.1-.85c0-.41.22-.93-.26-1.13-1.31-.55-1.44-1.85-2-2.89l-.45-.89-.36-.34-.32-.46c-.63-.56-1.62-.18-2.21-.85A2,2,0,0,1,544.9,68.07Z"/><path class="cls-1" d="M26.58,280.25c-1.42-.18-2.95-.95-4.17.53l-.53.56.23.24,1.25-.84c.25.28,0,.53.05.69a.48.48,0,0,1,0,.08,4.47,4.47,0,0,1,1.12-.49,3.64,3.64,0,0,0-.58-.5,27,27,0,0,1,5.94,1h0c.53-.16,1.21-.06,1.34-.84C29.66,281,28.14,280.44,26.58,280.25Z"/><path class="cls-1" d="M12.34,302.77l.49,3.76.06,1h0a.41.41,0,0,0-.29.42l0,0c-.9.45-1.1,1.57-2,2.05a.43.43,0,0,1,0-.63c2.4-2.34,1.22-5.13.92-7.77,0-.41.19-1.24-.66-1.38l-.06-.22.05-.39c.93-.14.46-.87.54-1.35.15-.95-.37-2,.36-2.85a3.69,3.69,0,0,0,1.14-1.14,2.51,2.51,0,0,0,1.22-2.26,3,3,0,0,1,2.14-3.12c.53-.2,1-.57,1.53-.77a4,4,0,0,0,2.51-3.2c.13-.61.3-1.21.38-1.82a2,2,0,0,1,1.16-1.69l.23.24a3.15,3.15,0,0,0-1,1.69c-.26,2.79-1.45,4.93-4.24,5.9l-.61.35h0l-.34.2-.13,0-.41.2-.11,0c-.49.23-.49.68-.47,1.1A4.27,4.27,0,0,1,13,295a1.84,1.84,0,0,0-.86,1.56C12.12,298.62,11.85,300.71,12.34,302.77Z"/><path class="cls-1" d="M214.21,431.11a6.69,6.69,0,0,0,3.21-4.47c.58-2.6,1.49-5.13,2.13-7.72.48-1.93,1.93-2.75,3.51-3.5,0,0,0,.12,0,.13-3.11,1.94-3.58,5.26-4.37,8.41a5.75,5.75,0,0,0-.21.83c-.43,4.41-3.49,6.81-6.84,9C212,432.43,213.46,432.13,214.21,431.11Z"/><path class="cls-1" d="M202.43,443c-2.44,3.38-5.33,6.4-8,9.6-.4.49-.56,1.38-1.49,1.31a20.87,20.87,0,0,1,3-3.73q2.67-3.22,5.39-6.41C201.62,443.39,201.83,442.88,202.43,443Z"/><path class="cls-1" d="M211,434.09c.13.51-.32.67-.6.85-3.06,2-5.13,4.92-7.46,7.61a3.68,3.68,0,0,1-.55.43c0-1.1.95-1.59,1.49-2.29C205.9,438.1,208,435.6,211,434.09Z"/><path class="cls-1" d="M211.6,433.8c-.1.28-.24.47-.57.29C211.12,433.79,211.28,433.65,211.6,433.8Z"/><path class="cls-1" d="M231.08,406.51c-.29,1.19.76.6,1.16.88a55,55,0,0,1-9.19,8.05c-.17-.39.29-.54.32-.86h0l.3-.31v0a3.66,3.66,0,0,0,1.73-1.45h0l.3-.3h0a.27.27,0,0,0,.26-.3l.56-.59a6,6,0,0,0,2.25-1.71c.19-.18.5-.51.13-.69-1.26-.63-.33-.72.18-1a5.72,5.72,0,0,0,1-1c.08-.23.23-.46,0-.67l0,0a1.38,1.38,0,0,0,1.18,0Zm-.38,1.31c-.5.06-.88.22-.67.85a1.15,1.15,0,0,0,.84-.63c.1-.09.2-.2,0-.32S230.78,407.79,230.7,407.82Z"/><path class="cls-1" d="M243.42,413.14c.3,1.23,0,2.05-1.45,2l0-2.31A2.92,2.92,0,0,1,243.42,413.14Z"/><path class="cls-1" d="M242.65,407.64c-.24.68.71,1.74-.65,2.06l-.09-2.29.09-.9,0,0C242.83,406.52,242.58,407.18,242.65,407.64Z"/><path class="cls-1" d="M232.21,407.42c-.05-.26.16-.24.31-.29Z"/><path class="cls-1" d="M165.15,36.68c3.93-1.28,8-1,12.06-1.16,5-.2,10-.6,15-.61a1.84,1.84,0,0,0,.53-.17l.54-.08,1.13,0a87.48,87.48,0,0,1,9-.23c5.92.15,10.74,2.71,14.73,7,.18.29.22.69.66.75l0,0c0,.24,0,.47.27.54l0,0A5.52,5.52,0,0,0,220.47,45l0,0,3.3,5.51L225,52.37l2.2,3.55c.09.17.2.32.43.3h0a14.67,14.67,0,0,0,3.5,5.13l1.66,1.47-.35.36-.6-.4-.43-.29h0l-.29-.28h0a.47.47,0,0,0-.57-.29h0l-.3-.29h0l-.29-.3h0l-.29-.29h0l-.29-.29h0a1.35,1.35,0,0,0-.62-1.08,13.57,13.57,0,0,1-3.06-4.08,84,84,0,0,0-5.06-8.91,27.65,27.65,0,0,0-5.85-7.24,17.94,17.94,0,0,0-10.41-4.17,62.16,62.16,0,0,0-7.13.07c-5.87.13-11.73.31-17.59.72l-10.19.43a11,11,0,0,0-4.9,1.39c-1.49.46-3,.85-4.48,1.4-2.12.79-2.21.94-2,3.07.08.8.79,1.62,1.41,1.59s.3-1,.32-1.56c0-.79-.65-1.46-.47-2.31.59.06.58.44.69.81.24.86.41,1.73.73,2.59.7,1.85,2.13,3.24,2.91,5-.54.07-.65-.51-1-.69-.59-.72-.75-1.83-1.85-2.11A4.72,4.72,0,0,1,158.42,44a2,2,0,0,0-2.44-.92.65.65,0,0,1-.55-.61c.37-.12.9.17,1.1-.4,0-.11,0-.37-.06-.38-.52-.14-.7.36-1,.58a.49.49,0,0,0-.09.11,1.19,1.19,0,0,0-.85.45L149,48.94l.05.07-.39.25-.19.3-1.17,1.32-.08.08a5.84,5.84,0,0,0-1.66,1.75A22.29,22.29,0,0,0,143,55.59l-.7.76a34.55,34.55,0,0,0-3,3.17c-.78.76-.33,1.69-.19,2.55a.35.35,0,0,0,.43.27c.3-.05.33-.3.35-.54a5.27,5.27,0,0,1,.75-2.56c.14-.22.33-.66.6-.4,1.11,1.1.94-.14,1.09-.6a12.4,12.4,0,0,0,.31-1.66,2.07,2.07,0,0,1,.44,1.59c-.11,1.88-1.46,3.39-1.57,5.28,0,.13-.37.24-.56.36l0-.46c.16-.28.33-.67-.11-.75s-.48.42-.55.76l-.33.05a.46.46,0,0,0-.27,0l-.62-.08-.85.08c-.64-.16-.75.31-1,.74s-.81.7-1,.06c-.5-1.59-1.31-.89-2.09-.38A16.9,16.9,0,0,0,132.65,65l-.55.32-.26-.28a5,5,0,0,1,.67-.73c.53-.39.95-.47.49-1.49-.88-2,0-3,2.16-2.85a4.05,4.05,0,0,0,3.58-1.48c4.61-5.08,9.33-10.06,14.06-15a3.91,3.91,0,0,0,1.44-3c.35-.89.91-.69,1.52-.3l-.06.6a.62.62,0,0,0-.62.23c-.21.09-.5.31-.39.43.28.31.41-.09.58-.25l.42-.43.63-.41v-.08l.58-.33a12.1,12.1,0,0,1,4-1.84C162.3,37.64,163.72,37.14,165.15,36.68Zm-8.24,4.59a.32.32,0,0,0,.36.34.68.68,0,0,0,.37-.37c.09-.19,0-.4-.23-.39A.54.54,0,0,0,156.91,41.27Z"/><path class="cls-1" d="M222.5,41a.82.82,0,0,0,.69.29c4.94,3.24,4.94,3.24,9.27.21l.28.3c-2.52,2.17-5.07,4.32-7.78,6.25l-.45.11c.52-1.21,1.74-1.66,2.67-2.42.72-.59.93-1-.08-1.52-1.44-.72-2.87-1.48-4.25-2.32-.79-.48-1.35-.11-2,.24s-.24,1-.16,1.52.7,1.06-.23,1.36l0,0c.09-.78-.39-1.42-.56-2.14s-.5-.55-.85-.13l0,0c.14-.29,0-.45-.27-.54l0,0c.22-.36-.2-.52-.24-.81l.69-.32h3.29Z"/><path class="cls-1" d="M186.41,28.39a30.32,30.32,0,0,0-.84,6.2c-.58-1-.28-2-.37-3,.92-3.29,1.24-6.7,1.87-10.05a34.08,34.08,0,0,0,1-6.87l0-.3c.63-.54,0-1.45.57-2,.56.26.26.75.3,1.15Z"/><path class="cls-1" d="M237.68,37.26a12,12,0,0,0,2.89-1.52c.18-.16.5-.16.56-.47h0l.59-.29h0c.61-.07,1-.67,1.71-.58-.42.81-1.28,1-2,1.47l-3.61,2L236,39.07l-.29-.26,1.64-1.55Z"/><path class="cls-1" d="M233.86,40.33a5.84,5.84,0,0,1,1.87-1.51l.29.26-1.86,1.56Z"/><path class="cls-1" d="M233.4,40.48l.46-.15.3.31-1.43,1.16-.28-.3.65-.76h0a.28.28,0,0,0,.29-.29Z"/><path class="cls-1" d="M650.75,83.93l-.51.09c-1.15-.37-1.83.86-2.87.85.94-1.32,2.39-1.51,3.82-1.54,2.18,0,3.85-.76,4.59-3l.35.33c-.06.31-.41.54-.27.89a2.45,2.45,0,0,0,.48-.1l.25.28-.3.52,0,0c-.16,0-.27.09-.27.27l0,0-2.3.88Z"/><path class="cls-1" d="M435.45,407.06l-.52-.27c-.64-.13-1.39.63-1.95-.21-.38.32-1,0-1.31.53,0,.4-.17.77-.63.76a4.61,4.61,0,0,1-.83,1.08,1.59,1.59,0,0,1-.06.65l.44.17c.76-.07.83.24.43.8l-1.6,3.67.15.12c.44-.2.31-1.31,1.21-.74-.1-1.8.75-3,2.7-3.93a1,1,0,0,1,.86.3c.27-.22.46-.56.86-.59l.25-.27C434.57,408.45,435,407.75,435.45,407.06Z"/><path class="cls-1" d="M44.72,274.61l1.69-.32,2.11-.4c2.18-.41,4.32-1,6.53-1.24-.89,1-2.17.86-3.3,1.11-2.25.49-4.55.78-6.78,1.42h0c-.44,0-.93-.13-1.29.3l0,0c-3.26.31-6.41,1.16-9.62,1.77,0-.94.82-.67,1.24-.76C38.47,275.81,41.59,275.23,44.72,274.61Z"/><path class="cls-1" d="M26.54,278c.27.1,1,0,.86.33-.22.57-.56,1.34-1.35,1.39-.45,0-1-.2-1-.81S25.78,278,26.54,278Z"/><path class="cls-1" d="M34.12,277.24a11.57,11.57,0,0,1-2.59,3.17A5.1,5.1,0,0,1,34.12,277.24Z"/><path class="cls-1" d="M31.55,280.39l-.3.31C31.21,280.46,31.21,280.26,31.55,280.39Z"/><path class="cls-1" d="M158.16,34.72l-.07-.11-.27-.94,0-.09-.18-.62c-.52-1.63-1.14-3.23-1.54-4.89a7.29,7.29,0,0,0-2.23-3.89l-.27-.3,0,0-.25-.27,0,0c-1.58-1.69-3.34-3.24-4.33-5.4l-1.82-3.08-.07-.06a4,4,0,0,1-.69-.85l-.16-.1h0l0,.69c.23.19.41.39.3.72h0a3,3,0,0,1,1.14,2,.55.55,0,0,1,.29.71c.73.11.78.81,1.08,1.29l.34.72.3.44h0l.3.3h0l.3.3h0c.37.17.69.38.58.87l0-.07c1.71,1.48,3.64,2.85,4.4,5.07,1.06,3.14,1.85,6.38,2.81,9.56a2.28,2.28,0,0,0,1,1.58C159.09,36.87,158.3,35.87,158.16,34.72Z"/><path class="cls-1" d="M578.86,28.38A8.3,8.3,0,0,1,576,31.53l.08-.54H576l.3-.3h0l.3-.3h0l.3-.3h0l.3-.3v0l.3-.26C577.91,29.16,578.19,28.54,578.86,28.38Z"/><path class="cls-1" d="M580.33,25.93c.73-.35.86-1.32,1.67-1.58a4,4,0,0,1-2,2.6Z"/><path class="cls-1" d="M580,26.94c-.09.72-.34,1.31-1.16,1.45C579.11,27.8,579.23,27.12,580,26.94Z"/><path class="cls-1" d="M421,4.37h0Z"/><path class="cls-1" d="M7.39,313.65a.58.58,0,0,0,.13-.19,9.8,9.8,0,0,0,1.71-2.52,1.59,1.59,0,0,1,1.37-1,22.86,22.86,0,0,1-3,4.38l-.32-.3Z"/><path class="cls-1" d="M3.45,319.69c-.2-.81.68-1.1.82-1.74a.55.55,0,0,0,.08-.18l.57-.59.32.28A8.68,8.68,0,0,1,3.45,319.69Z"/><path class="cls-1" d="M2,321.41A1.27,1.27,0,0,1,3.16,320,2.45,2.45,0,0,1,2,321.41Z"/><path class="cls-1" d="M5.23,316.57l.26-.31L5.8,316l.29.27-.84,1.16-.32-.28Z"/><path class="cls-1" d="M6.69,314.57l.24-.29.31-.26.32.3a2.69,2.69,0,0,1-.88,1.13l-.27-.25Z"/><path class="cls-1" d="M6.67,315.44l-.58.86L5.8,316l.6-.84Z"/><path class="cls-1" d="M3.16,320c0-.2.08-.31.29-.29Z"/><path class="cls-1" d="M328.77,440.4s.05.12,0,.13c-1.08.92-.64,2.12-.61,3.24l-.46.23a3.26,3.26,0,0,1-2.9-1.34h0l.41-1.1C326.52,441.46,327.52,440.58,328.77,440.4Z"/><path class="cls-1" d="M326.56,446.73c-.46-1.53-1.8-2.51-2.44-3.93l.17-.16.54,0h0c0,1.24,1.26,1.65,1.72,2.58C326.41,445.74,328,446.23,326.56,446.73Z"/><path class="cls-1" d="M324.13,442.8c-.37-.2-.49-.71-1-.75v0l-.1-.75.29-.29,1,1.6Z"/><path class="cls-1" d="M6.57,309.66a2.33,2.33,0,0,0,.6-1.32c1.64.25,1.09,1.31.84,2.26a.92.92,0,0,1-.73-.44Z"/><path class="cls-1" d="M661.13,78c.07-.31.19-.57.57-.57C661.69,77.77,661.54,78,661.13,78Z"/><path class="cls-1" d="M661.7,77.4a.43.43,0,0,1,.28-.57A.43.43,0,0,1,661.7,77.4Z"/><path class="cls-1" d="M660.84,78.55a.46.46,0,0,1,.29-.58A.39.39,0,0,1,660.84,78.55Z"/><path class="cls-1" d="M88.82,169.12l-.08.34-.19,1.38c-.45,2.23-.29,4.58-1.36,6.69l-.07.53c-.07,3.22-.86,6.35-1.25,9.54-.1.84-.31,1.67-.47,2.51a44,44,0,0,1-1.11,6.73c-.15,3.67-1,7.24-1.56,10.87-.36,2.58-.83,5.14-1.27,7.71-.09.51.27,1.34-.5,1.42a.43.43,0,0,1-.19,0,5.68,5.68,0,0,1-.27,1.72c.28.12.42.41.32,1A27.7,27.7,0,0,1,80,224a11.16,11.16,0,0,1-.53,3.7l0,0a7.71,7.71,0,0,1-.53,3.13,6.8,6.8,0,0,1-.38,2.21c0,.42.12.85-.24,1.19-.47,1.28-.13,2.7-.66,4-.27,6,.65,12,.64,18.07,0,.29,0,.57,0,.86a6.07,6.07,0,0,1-.6,5.16l.57-.32a3.11,3.11,0,0,0,.82-2.33c0-1.1-.73-2.38.52-3.31,0,0,0-.31-.06-.36-1.61-1.11-.81-2.62-.7-4l0-.42c-.65-2.66-.37-5.39-.64-8.08-.56-5.62,1.3-10.93,2-16.38.19-1.46.52-2.91.79-4.36.67-5.37,1.61-10.69,2.51-16l1-6,.17-1.77a1.9,1.9,0,0,1,.47-1.42,2.15,2.15,0,0,1,.29-1.86c-.17-2.54.65-5,.89-7.45.06-.61.22-1.22.33-1.82.39-2.58.59-5.19,1.21-7.74l1.74-11.11C88.91,168,89,168.57,88.82,169.12Z"/><path class="cls-1" d="M89.57,165.43c-.46-.32-.67-.12-.8.34s.16.94-.29,1.31c-.61-2.11-.37-2.46,1.37-2.07Z"/><path class="cls-1" d="M89.85,165c.76.68.24,1.4.14,2.24-.61-.62-.2-1.28-.42-1.82Z"/><path class="cls-1" d="M150,92.42c3.6-1.78,7.4-3.14,10.83-5.27.31-.41.6-.83.92-1.23s.45-1.32,1.27-1.47l0,0,0,.65,0,0c-.69.34-.85,1.06-1.15,1.67A2.46,2.46,0,0,1,160,88.35l-4.91,2.48v0a4.4,4.4,0,0,0-2.24.93c-.56.28-1.38.23-1.45,1.13h-.3c-1-.3-1.68.55-2.58.54l0,0C148.77,92.77,149.57,92.85,150,92.42Z"/><path class="cls-1" d="M571.68,35.82a4.22,4.22,0,0,1-2,2l.09-.5,0,0,.3-.3h0l.3-.3h0l.3-.3h0l.3-.3h0l.3-.3v.07Z"/><path class="cls-1" d="M572.53,35a.55.55,0,0,1-.57.57C571.91,35.11,572.1,34.92,572.53,35Z"/><path class="cls-1" d="M572,35.54c0,.2-.09.29-.28.28C571.63,35.59,571.72,35.49,572,35.54Z"/><path class="cls-1" d="M572.82,34.68a.24.24,0,0,1-.28.28C572.49,34.72,572.58,34.63,572.82,34.68Z"/><path class="cls-1" d="M573.11,34.39c0,.19-.09.29-.28.28Q572.75,34.32,573.11,34.39Z"/><path class="cls-1" d="M573.4,34.11a.25.25,0,0,1-.29.29Q573,34,573.4,34.11Z"/><path class="cls-1" d="M573.68,33.82c0,.2-.09.29-.28.28C573.35,33.87,573.44,33.77,573.68,33.82Z"/><path class="cls-1" d="M574,33.53q0,.29-.28.28Q573.61,33.46,574,33.53Z"/><path class="cls-1" d="M574.25,33.25c0,.2-.09.29-.28.28C573.92,33.29,574,33.2,574.25,33.25Z"/><path class="cls-1" d="M574.54,33c0,.2-.09.29-.28.28Q574.19,32.89,574.54,33Z"/><path class="cls-1" d="M574.83,32.67c0,.19-.09.29-.28.28C574.5,32.72,574.59,32.63,574.83,32.67Z"/><path class="cls-1" d="M575.12,32.38a.25.25,0,0,1-.29.29C574.79,32.43,574.88,32.34,575.12,32.38Z"/><path class="cls-1" d="M575.41,32.09a.29.29,0,0,1-.3.29C575.08,32.15,575.18,32.05,575.41,32.09Z"/><path class="cls-1" d="M575.7,31.81l-.3.3C575.36,31.87,575.46,31.77,575.7,31.81Z"/><path class="cls-1" d="M576,31.52a.28.28,0,0,1-.29.3C575.65,31.58,575.74,31.49,576,31.52Z"/><path class="cls-1" d="M238.75,347.55c-1.56-1.1-3.12-2.19-4.67-3.29a1.58,1.58,0,0,1-.33-2.46,13.78,13.78,0,0,0,1.44-2.29c.27-1.92.39-3.88.84-5.76.8-3.35.06-6.62-.17-9.92-.26-3.6-.66-7.19-.95-10.79a60.92,60.92,0,0,1-.6-7.67l-.72-9.08-.15-.66v-.89l.06-.54-.16-1.35a1.61,1.61,0,0,1-.14-1.21q0-.87,0-1.73l0-.61a.69.69,0,0,1-.13-.74,1.2,1.2,0,0,1-.15-.95l0-1.14-.15-1.12c-.11-2.31-.63-4.59-.43-6.91a.67.67,0,0,1-.11-.25,7.24,7.24,0,0,1-.1-2.93A.18.18,0,0,1,232,275a20.62,20.62,0,0,1,.29-9.32c.06-.27.12-.66.5-.49l.12,0a5.36,5.36,0,0,1,.91-2.81.86.86,0,0,0-.76.08c-.05-.12-.18-.28-.14-.35.57-1.1-.11-2.12-.18-3.18a10.82,10.82,0,0,1-.73-3.48l-.11-.27-.29-1.14a5.82,5.82,0,0,1,.11-4.6v-.64c1-4.81.9-9.7.93-14.58l.07-.35a50.45,50.45,0,0,1-.08-6.18,3.12,3.12,0,0,1,.09-1.75l-2.82-5.44c-.65-1.14-1.35-2.26-1.91-3.44-.23-.49-.61-1.13-.07-1.72l-.31-.36c-.72.17-.82-.47-.9-.84-.21-1-.91-1.79-.81-2.84h-.28c-.27-.23-.23-.56-.26-.87l-.28-.52a4.32,4.32,0,0,1-1.46-1,.33.33,0,0,1-.21,0c-.16.34-.33.68-.48,1s-.09.8.41.83c2.09.1,1.9,2.08,2.66,3.25.35.54-.62.24-.61.79,1.78,0,1.43,1.88,2.32,2.75l4.26,8.32.14.3v3.14q0,.5,0,1,0,2.38,0,4.75,0,.49,0,1c.43,5-.36,10-1.23,14.88a8.61,8.61,0,0,0,.05,3.41,2.63,2.63,0,0,1,.38,1.46,1.65,1.65,0,0,1,.06,1.4h0c1,1.43,1.39,5.13.62,6.37-.34.55-.82.17-1.12.06l-.26-.1a4.54,4.54,0,0,1,.09,1h0c.81.28,1.12.65.92,1.56a13.11,13.11,0,0,1-.73,3.42l.69,10c.53,1.56.25,3.2.47,4.8.3,2.11.27,4.26.39,6.39l.55,6.58.07.72a.51.51,0,0,1,.06.19l.12.55.7,10.49.14.66,0,1.47,0,1.18c.6,2.22.39,4.52.59,6.78.23,2.63.51,5.28.72,7.91a38,38,0,0,1-.28,7.35c-.28,2.5-.12,5.09-2,7.19-.81.89-.21,2,.51,2.77a10.57,10.57,0,0,0,1.43,1.14l.54.47.39.27a.1.1,0,0,1,.15.06c1,.52,1.78,1.47,2.89,1.87C239.33,347.95,238.86,347.83,238.75,347.55Z"/><path class="cls-1" d="M56.75,271.52l.3-.85,0,0,.56-.42,0-.08.54-.5a1.28,1.28,0,0,0,.86-.71h0l.3-.3h0c.39-.18.78-.37.86-.86h0c.49.1.68-.28.92-.57l.54-.5c.57-.5,1.36-.76,1.7-1.52h0l.3-.3h0l.3-.3h0a6,6,0,0,1,2.76-.39c2.23.08,4.46.07,6.68.27a2.87,2.87,0,0,0,3-1.16c.17-.24.32-.63.77-.47-.71,1.23-1.49,2.35-3.13,2.33l-.81-.07a71.82,71.82,0,0,0-7.69-.37,1.71,1.71,0,0,0-1.14.54c-1.6,1.35-3.22,2.69-4.82,4a1.83,1.83,0,0,0-.86,1.83l-.47.46C57.81,270.56,57.24,271.45,56.75,271.52Z"/><path class="cls-1" d="M56.13,272l-.45.1-.13-.14a1.43,1.43,0,0,1,1.1-.5Z"/><path class="cls-1" d="M77.39,262.62c0-.24.06-.34.3-.3Z"/><path class="cls-1" d="M77.11,262.9c0-.24.06-.34.3-.3A.3.3,0,0,1,77.11,262.9Z"/><path class="cls-1" d="M278.68,392.66a4.1,4.1,0,0,1,3.17-2.76c1.69-.47,3.42-.77,5.13-1.15a3.43,3.43,0,0,0,1.72-.28c2.05-.38,4.1-.8,6.16-1.14,1.45-.24,2.72-.57,2.52-2.47a1.62,1.62,0,0,1,.19-.61c.49,0,.65.34.88.55.84.78,1.53.62,2.11-.3,2-3.09,4.14-6,5.81-9.33.87-1.71,1.89-3.43,3.88-4.19.27-.1.45-.47.67-.71a6.91,6.91,0,0,0,2.82-1.48c2.27-1.84,3.2-4.56,4.6-7,1.2-1.11,1.27-2.83,2.23-4.08A2.68,2.68,0,0,0,321.7,356c.37-.09.42-.77,1-.51l-.57,1.79a.74.74,0,0,0-.49,1,45.65,45.65,0,0,0-4.7,7.46,11.33,11.33,0,0,1-5.29,5.55,10.27,10.27,0,0,0-4.48,4.62c0,.7-.64,1-1,1.43l-1.55,2.59-.21.38L301.23,385l-.31.48a4.55,4.55,0,0,0-.86,1.12c-.32.92-.72,1.3-1.7.74-.42-.24-.87-.1-.67.59a10.79,10.79,0,0,0,.37,1.37c1.3,2.94,2.62,5.87,3.94,8.8l2.4,5.31a9.39,9.39,0,0,0,.29.95q2.06,4.93,4.13,9.85l-.24.32-.66-.87h0a1.7,1.7,0,0,0-.58-1.29h0a.69.69,0,0,0-.3-.73v0a.5.5,0,0,0-.3-.59v0a.64.64,0,0,0-.29-.74v0a.58.58,0,0,0-.29-.59h0a9.44,9.44,0,0,0-1-2.94c-2-4.65-3.86-9.32-6.12-13.83h0a1.55,1.55,0,0,0-.59-1.14h0c0-.26,0-.48-.29-.59h0a.77.77,0,0,0-.29-.87h0c0-.24,0-.47-.29-.59h0a.8.8,0,0,0-.3-.73l0-.05A1.45,1.45,0,0,0,297,388c0-.8-.44-.62-.95-.51-1.29.28-2.59.51-3.89.76-1.42.79-3.06.38-4.54.87l-.67.24a1.05,1.05,0,0,0-.94.17C283.31,389.92,280.62,390.38,278.68,392.66ZM298,386c.24,0,.49-.05.5-.35a.33.33,0,0,0-.37-.33c-.31,0-.3.29-.3.52S297.79,386.07,298,386Z"/><path class="cls-1" d="M260.6,406.83c-.16-.43.15-.62.43-.78a63.3,63.3,0,0,0,10.5-7.25,9.85,9.85,0,0,1-3.58,3.49c-1.95,1.35-4,2.62-5.94,3.92-.31.08-.64.16-.56.61l0,0Z"/><path class="cls-1" d="M271.92,398.24c1.27-.88,2-2.4,3.62-2.87a15.86,15.86,0,0,1-2.67,2.64C272.62,398.23,272.34,398.6,271.92,398.24Z"/><path class="cls-1" d="M275.53,395.39c.34-1.2,1.42-1.67,2.31-2.32C277.5,394.27,276.45,394.77,275.53,395.39Z"/><path class="cls-1" d="M277.81,393.09c.17-.3.34-.58.74-.3C278.34,393,278.18,393.3,277.81,393.09Z"/><path class="cls-1" d="M271.5,398.83l.31-.47C271.89,398.64,271.79,398.79,271.5,398.83Z"/><path class="cls-1" d="M321.6,439l-3.73-6,.3-.29,1.17,1.73a.53.53,0,0,0,.09.2l.48.63v0a2.75,2.75,0,0,0,.87,1.4v0a1.24,1.24,0,0,0,.54.86v0l.56,1.17Z"/><path class="cls-1" d="M313.12,424.85l.12-.8a29.48,29.48,0,0,0,2.05,4.09l-.3.29A16.86,16.86,0,0,1,313.12,424.85Z"/><path class="cls-1" d="M322,440.07l-.13-.42-.27-.64.29-.27,1.44,2.29-.29.29-.31-.26-.29-.55Z"/><path class="cls-1" d="M317.87,433l-1.44-2.29.29-.28,1.44,2.28Z"/><path class="cls-1" d="M316.43,430.72,315,428.42l.3-.29,1.43,2.3Z"/><path class="cls-1" d="M244.61,412.93l-1.2.22c0-1.85.26-3.73-.62-5.48.71,0,1-1,1.79-.82l0,0c0,.22.11.32.32.32l0,0c.36.5.72.69,1.12,0l.08-.05,1.11.58c.5.65,1.39.88,1.81,1.62l-.22.38-1.94-1.39c-.06.61.49.75.66,1.12-.63.13-.63.62-.64,1.11-.3.1-.6.36-.91.05s-.53-.82-1-.39a1.49,1.49,0,0,0-.57,1.37C244.41,412,244.51,412.47,244.61,412.93Z"/><path class="cls-1" d="M245.68,416.54c-.44.3-1,.24-1.42.67-.79.16-1.62.28-1.74,1.32l-.22,0-.2-2.5a1.71,1.71,0,0,1,2.09-.23c.31.68,1.13-.05,1.48.53A1.58,1.58,0,0,0,245.68,416.54Z"/><path class="cls-1" d="M254.31,410.55l.29,0c.88.59,1.68.19,2.47-.22l.2.29a1.15,1.15,0,0,1-1.16.68c-1.76-.09-3.52-.19-5.28-.25a1.46,1.46,0,0,1-1.06-.64l.28-.21A10.31,10.31,0,0,0,254.31,410.55Z"/><path class="cls-1" d="M247.94,412.46c.5-.24,1-.36,1.06.41l0,.54,0,.33-.06.3-.65.07c-.56-.1-1.2.08-1.65-.44l-.06-.32A1.6,1.6,0,0,1,247.94,412.46Z"/><path class="cls-1" d="M259.13,408c.54-.33.61-1.25,1.48-1.18-.16.75-.83,1.1-1.3,1.6l-.19-.21A1.3,1.3,0,0,0,259.13,408Z"/><path class="cls-1" d="M249.77,410.44l-1-.75.22-.38a1.67,1.67,0,0,1,1.09.93Z"/><path class="cls-1" d="M258,409.14l.29,0c.12.2.06.33-.17.35C258.11,409.47,258.06,409.26,258,409.14Z"/><path class="cls-1" d="M258.88,408.54l0-.3.19,0,.19.21C259.19,408.54,259.07,408.66,258.88,408.54Z"/><path class="cls-1" d="M258.59,408.84a.29.29,0,0,1,.3-.3Q258.93,408.87,258.59,408.84Z"/><path class="cls-1" d="M258.31,409.12a.3.3,0,0,1,.3-.3Q258.64,409.16,258.31,409.12Z"/><path class="cls-1" d="M257.07,410.35l.3,0-.1.31Z"/><path class="cls-1" d="M309.57,101.35c1.43,1.25,2.86,2.51,4.93,2.51.69,1.26,2,1.65,3.17,2.24,1.41.81,2.65,1.94,4.3,2.29l.11,0h.11c.08.56.53.68,1,.82l8.16,4.54h0l.14.31-.21.32-1.87-.84,0,0a.5.5,0,0,0-.6-.3h0c-3.64-2.41-7.55-4.35-11.38-6.41l-.34-.09.17.27c.62.64.08.55-.31.47a8.37,8.37,0,0,0-3.06-.55l0,0c0-.63-.38-.71-.89-.59l0,0c-.2-.91-.05-1.46,1.06-1.08.16.19.32.36.58.13l-.38-.35q-5-3-10-6a29.31,29.31,0,0,0-9.58-3.91h0a9.16,9.16,0,0,0-2.91-1.09c-3.64-1.22-7.3-2.36-10.9-3.68-1.77-.65-3.16-2-4.76-3.05-.56-.35-1.11-.72-1.66-1.08a11.42,11.42,0,0,0-1.45-1.13c-.82-.46-1.39-1.56-2.6-1.13-1,0-1.91-.15-2.85-.09s-1.43-.37-1.25-1.33c.3-1.63-.56-2.44-1.77-3.43-2.63-2.13-5.76-2.87-8.86-3.71-4.09-1.11-8.21-2.07-12-4.14-.34-.21-.63-.57-1.13-.39.21.38.58.47.91.63l2.6,1.38c-2.13,0-3.61-1.68-5.58-2.12h0l-.59-.43a19.18,19.18,0,0,0-3.85-1.86,1.34,1.34,0,0,0-1-.59v0c-.21-.35-.55-.28-.87-.27l-.52-.07c-3.17-.18-6.34-.8-9.49.12l-.66.21-2,.38-.41.18c-.32,0-.68,0-.9.3a62.87,62.87,0,0,0-7.22,1.59,6.47,6.47,0,0,1-2.24.33,58.31,58.31,0,0,0-7.23-.53c-1.06-.55-2.17-.16-3.27-.19l-.22-.19c-1.38-.41-2.82-.1-4.23-.38-.84-.16-2-.57-2.47.79-.07.19-.57.34-.92.17s-.31-.63-.6-.14a.85.85,0,0,0,0,.68c.09.2.44.16.32.62a1.31,1.31,0,0,0,1.48,1.66c.24,0,.53-.06.63.2.16.42-.26.42-.48.53-1.17.62-1.7.34-2.33-.9s-.9-2.7-2.82-2.61c.44,1,.35,1.71-.78,2a1.09,1.09,0,0,0-.77,1.1c-.28.15-.43.51-.81.49a3,3,0,0,0-3.63-.35c-.32.2-.72,0-1-.38s-.54-.9-1.11-.72-.46.92-.48,1.35c0,1.27-.53,1.52-1.58.92l-1.36-1.57a.34.34,0,0,1,0-.5.37.37,0,0,1,.5,0c.25.15.46.66.79.25a1.12,1.12,0,0,0,0-1.21c-.2-.39-.6-.39-1-.26l-1.07.34c-.76-.22-1.84,0-2-1.12-.12-.88-.7-1-1.37-1.09a1.26,1.26,0,0,0-1-.6,3,3,0,0,0-1.75-.55c-.71,0-1.67.25-1.53,1,.1.62-.35,1-.17,1.57l-.07,0,.06,0,.32.29-.1.5c-.51.14-.47.57-.52,1-.52.57-.33,1.34-.55,2a1.52,1.52,0,0,0,.79,2.12c.22.35.95.38.64,1-.7,0-1.3-1.75-2.09-.12l-.28-.25c.06-.3.28-.65-.2-.82q0-.14,0-.28a.26.26,0,0,0,.25,0,.24.24,0,0,0,0-.26,23.7,23.7,0,0,0,.89-5.59,2.72,2.72,0,0,0,.45-1.88c0-1.1.48-1.11,1.41-1.05,1.27.08,2.62.33,3.83-.39.48-.09,1,.84,1.43,0,.64.14,1.28.25,1.91.43a4,4,0,0,0,3.25-.4c.78-.58,1.2-.59,1.88-.17.62,1.46,1.43.29,2.16.15.06,0,0,.25.2.1l-.21-.09.16-.47c.63-.14,1.14-.13,1,.75-.07.48.31.29.53.33.26.28.54.32.94,0l-.89-.1c.08-.19.35-.3.26-.57l1.44,0c.49.51,1.17.08,1.71.32,2.86,1.23,6,.91,8.93,1.36a46.23,46.23,0,0,0,5.61.38l.39.08c2.33.2,4.66.42,7,.57a2.58,2.58,0,0,0,1.89-.4l.31-.06c.32,0,.65.11.88-.22,2-.19,3.88-.88,5.84-1.26,2.62-.51,5.14-1.47,7.84-1.55l1.51.17a15.1,15.1,0,0,1,9.86,2.52c.85.39,1.56,1.12,2.82,1.19a9.1,9.1,0,0,0-2.65-1.42,19.69,19.69,0,0,1-4.9-3.42v0l-.31-.31,0,0-.31-.31h0c-.08-.3-.33-.38-.59-.44,0-.68-.63-1-1-1.45l.35-.36,2.5,2.06c3.22,3.43,7.41,5.45,11.61,7.16a29.53,29.53,0,0,0,8.53,2.16l4.11,1.22a54.4,54.4,0,0,1,6.13,3.21c1.77,1,3.42,2.26,5.66,1.83a.85.85,0,0,1,1.07,1.1c-.36,1.55.66,2.15,1.65,2.93,3.83,3,7.63,6.06,12.66,6.84,2.25.74,4.47,1.59,6.76,2.19,5.23,1.36,9.63,4.38,14.31,6.85l1.76.92Zm6.25,4.91.33,0-.17-.24-.5-.37c-.14-.12-.3-.21-.45,0s.1.19.16.3ZM185.13,70.6c.08.08.21.25.22.24.2-.13.12-.27,0-.41a2.16,2.16,0,0,1,.06-.81c.14-.28.89-.21.59-.74s-.78-.15-1.15,0-1,.06-1.06.72.56.67.94.89A1.79,1.79,0,0,0,185.13,70.6Zm5.43-1.29a5.51,5.51,0,0,0,2.53-.06A4.51,4.51,0,0,0,190.56,69.31Z"/><path class="cls-1" d="M316.65,106.61l.1-.08s-.06-.09-.09-.09-.07,0-.1.08Z"/><path class="cls-1" d="M278.41,16.94l-4.63,1.41-.31.1c-.57,0-1.11.4-1.71.16.38-.53,1.09-.41,1.56-.77,3.17-1,6.58-1.4,9.2-3.74a2.58,2.58,0,0,1,.77-.32c-.73,1.34-2.06,1.9-3.3,2.57A12.52,12.52,0,0,1,278.41,16.94Z"/><path class="cls-1" d="M233.9,403.69a6.25,6.25,0,0,1,0-2c.18-1.88.37-3.76.53-5.64.07-.84.27-1.57,1.22-1.81-1.12,1.95-.81,4.16-1.14,6.25-.13.81.76,0,.85.56,0,.2.58.07.62-.25.1-.91.81-1.76.24-2.76a.79.79,0,0,1,.21-1.24c.28.9.63,1.77,1.55,2.06,1.11.35,1.07.94.49,1.73a5.29,5.29,0,0,0,4,2.62c.28.74.51.49.8,0s-.21-1.15.56-1,.5.82.61,1.31c.06.28.07.57.11.85a2.38,2.38,0,0,1-1.19.35l-.52-.37a26.45,26.45,0,0,0-3.78.29l0,0c-.3-.47-.6-.38-.9,0l0,0c-.22-.08-.54-.09-.64-.24-.61-.9-1.22-.69-2-.22C235.06,404.37,234.25,404.78,233.9,403.69Zm.8-1.91,0,.06h.06Z"/><path class="cls-1" d="M248.12,406.84c-.68.66-1,.24-1.29-.4.42-.42.75.25,1.12,0Z"/><path class="cls-1" d="M268.1,20.07a35.06,35.06,0,0,1-4.91,4.14c-3.07,1.27-5.94,2.94-8.91,4.4-1.91,1.06-3.82,2.13-5.74,3.16-.52.28-1,.79-1.67.65l.28-.41,8-4.5.32-.19.83-.38c.89-.44,1.76-.9,2.66-1.31,3-1.41,6.06-2.86,8.25-5.53l.73-.49.19.28A1,1,0,0,0,268.1,20.07Z"/><path class="cls-1" d="M243.42,34.4A13.77,13.77,0,0,1,246,32.56a.56.56,0,0,1,.58.15A6.07,6.07,0,0,1,243.42,34.4Z"/><path class="cls-1" d="M246.87,32.42c0,.23-.12.26-.29.28C246.55,32.48,246.68,32.42,246.87,32.42Z"/><path class="cls-1" d="M554.62,69.3l0,.17a4.6,4.6,0,0,1,.54-.71l-.09-.07c-.44-.59,0-1.08.19-1.58.85-2,1.72-4,2.59-6,.13-.3.33-.58.12-.92-.78.55-.88,1.48-1.28,2.25s-.41,1.65-1.29,2.06l-.06.29c.11.55-.2,1-.35,1.49-.54,1.83-1.78,3.41-1.9,5.39C553.91,71.11,553.79,69.92,554.62,69.3Z"/><path class="cls-1" d="M559.08,57.62c.27.61-.4,1.1-.2,1.7l-.09.36c-.37,0-.4.62-.85.52A3.28,3.28,0,0,1,559.08,57.62Z"/><path class="cls-1" d="M560.19,56.08c-.34.28-.28.89-.84,1a2.43,2.43,0,0,1,.87-2v.86A.23.23,0,0,0,560.19,56.08Z"/><path class="cls-1" d="M582,24.37a3.16,3.16,0,0,1,1.74-2C583.31,23.15,583,24,582,24.37Z"/><path class="cls-1" d="M567.75,41.14c.18-.56.4-.9,1-1A1.2,1.2,0,0,1,567.75,41.14Z"/><path class="cls-1" d="M568.6,38.48l.5-.08a.57.57,0,0,1-.58.58Z"/><polygon class="cls-1" points="568.93 39.74 569.03 39.71 569.02 39.8 568.93 39.74"/><path class="cls-1" d="M567.94,39.57c0-.22.08-.32.3-.31A.29.29,0,0,1,567.94,39.57Z"/><path class="cls-1" d="M569.93,39.14l-.33.12,0-.31Z"/><path class="cls-1" d="M568.23,39.27c0-.22.07-.32.3-.3A.27.27,0,0,1,568.23,39.27Z"/><path class="cls-1" d="M570.19,38.83l-.26.31-.29-.19.27-.3Z"/><path class="cls-1" d="M570.42,38.55l-.23.28-.28-.19.29-.29Z"/><path class="cls-1" d="M570.2,38.36l.3-.27.2.18-.28.29Z"/><path class="cls-1" d="M569.1,38.41c0-.23.06-.32.29-.29A.24.24,0,0,1,569.1,38.41Z"/><path class="cls-1" d="M570.5,38.09l.29-.28.15.16-.24.3Z"/><path class="cls-1" d="M569.38,38.12c0-.23.06-.33.29-.29A.24.24,0,0,1,569.38,38.12Z"/><path class="cls-1" d="M571.24,37.68l-.29.29-.15-.16.28-.29Z"/><path class="cls-1" d="M571.53,37.39l-.29.29-.16-.16.29-.29Z"/><path class="cls-1" d="M571.81,37.11l-.29.29-.16-.16.29-.28Z"/><path class="cls-1" d="M571.65,36.95l.28-.29.15.15-.27.3Z"/><path class="cls-1" d="M571.93,36.65l.29-.29.14.14-.29.29Z"/><path class="cls-1" d="M572.22,36.37c.06-.05.15-.16.17-.15s.06.2,0,.29Z"/><path class="cls-1" d="M637.35,90.9c-.62.71-1.61.83-2.29,1.43l-.34.08a10.51,10.51,0,0,1-2.24.78A9.27,9.27,0,0,1,637.35,90.9Z"/><path class="cls-1" d="M639.35,90.29l-1.42.32a7.46,7.46,0,0,1,4.3-2c-.46.58-1.24.66-1.77,1.13l-.29.06-.32.23a.73.73,0,0,0-.26.06l-.26.24Z"/><path class="cls-1" d="M642.52,87.78c1.27-.35,2-1.68,3.43-1.77l-.5.66-3.22,1.94C642.06,88.24,642.43,88.06,642.52,87.78Z"/><path class="cls-1" d="M645.94,86c.2-.74.83-.94,1.45-1.16A1.88,1.88,0,0,1,645.94,86Z"/><path class="cls-1" d="M437,401.37l-.61.87c-.63.46-.65,1.42-1.43,1.76h-.05a31.26,31.26,0,0,1,1.87-3.95l.26.22Z"/><path class="cls-1" d="M435,406.54q0-1.14,0-2.28c.18.23,1.3-.38.57.65C435.24,405.4,435.8,406.22,435,406.54Z"/><path class="cls-1" d="M619.28,96l1-.19,3.92-.77.31-.14h0a2.18,2.18,0,0,0,1.15-.25l2.5-.47.3-.15h0c1.18.1,2.21-.7,3.39-.59-.92,1-2.25.89-3.42,1.16-3.38.77-6.77,1.44-10.16,2.17-1.75.38-3.21,1.43-4.82,2.13a17.82,17.82,0,0,1-3,1.32l-.18-.28,7.55-3.71.58,0,.66-.14A.21.21,0,0,0,619.28,96Z"/><path class="cls-1" d="M637.93,90.61c-.09.29-.33.31-.58.29C637.43,90.57,637.64,90.52,637.93,90.61Z"/><path class="cls-1" d="M632.48,93.19c-.1.28-.32.31-.57.29C632,93.17,632.2,93.11,632.48,93.19Z"/><path class="cls-1" d="M625.31,250h0a.27.27,0,0,1,.28.29h0a.27.27,0,0,1,.29.29h0c.18,0,.28.1.27.3a.27.27,0,0,1,.26.21l.23.05a.76.76,0,0,1,.28.08,3.93,3.93,0,0,1,1,.47l.1-.15c-.92-.82-1.57-1.94-2.72-2.52l-.41-.35-.58-.28-.22.29C624.37,249.21,625.14,249.32,625.31,250Z"/><path class="cls-1" d="M620.67,245.73l.65,0,1.34,1.27-.3.29Z"/><path class="cls-1" d="M622.66,246.95a6.51,6.51,0,0,1,1.64,1.43l-.22.29-1.73-1.43Z"/><path class="cls-1" d="M118.12,72.27l.59-.3C118.63,72.29,118.4,72.34,118.12,72.27Z"/><path class="cls-1" d="M132.95,65.29c2.13.38,4.1-.47,6.12-.84l1.66-.32c2,.67,4,1.32,5.94,2,.75.26,1.56.49,1.54,1.54a13.44,13.44,0,0,0-5.07-2.1c-2.66-1.55-5.21-.15-7.8.27C134.48,66,133.54,66.38,132.95,65.29Z"/><path class="cls-1" d="M154,67.38c.24,1-.81,1.44-.89,2.28-2.3.78-3.48.29-4-1.42a13.49,13.49,0,0,0,3.08.76.77.77,0,0,0,.91-.49C153.37,68.13,153.45,67.57,154,67.38Z"/><path class="cls-1" d="M164.25,82.56l-.53,0a26.64,26.64,0,0,0,2.34-4.25h0c.43,0,.45-.5.76-.65l.28.25-1,1.82-.17.47a2.09,2.09,0,0,0-.83,1.24h0l-.38.56-.19.31-.28.27Z"/><path class="cls-1" d="M148.22,67.68c.57-.23.67.23.86.57C148.55,68.44,148.39,68,148.22,67.68Z"/><path class="cls-1" d="M211.18,152.17c-.11,2,.82,3.78,1.29,5.65.9,3.61,2,7.17,2.94,10.76.09.31.13.64.21,1.08-.66-.24-.64-.78-.75-1.17-1.82-6.62-3.76-13.22-5.34-19.89a7.79,7.79,0,0,0-3.6-5.29c-1.81-1.09-2.17-2.92-2.7-4.68-.72-2.39-1.57-4.69-3.67-6.27l.3-.23c2.2,1.23,3.05,3.47,3.53,5.63a10.29,10.29,0,0,0,4.48,6.58,4.09,4.09,0,0,1,1.72,3.06,11.15,11.15,0,0,0,1.57,4.77Z"/><path class="cls-1" d="M307.95,103.92l-2.48-1.62L300.54,99l-.05-.39a62.29,62.29,0,0,1,5.67,3.48c2.36,1.37,4.45,3.17,6.94,4.33l0,0a.85.85,0,0,0,.89.59l0,0c2.12,1.56,4.07,3.38,6.74,4.06s5.34,1.95,8.2,2.26h0c.06.38.27.47.6.3l0,0v.59l-2.86-.64-.08-.05a19,19,0,0,0-3.78-1.14l0,0a1,1,0,0,0-.89-.19c-.26-.33-.63-.24-1-.26-4.33-1.81-7.79-5.06-11.91-7.23Z"/><path class="cls-1" d="M222.37,204.19c-.58-.56-1.23-1.08-1.25-2-.08-3.55-.1-7.11-.14-10.66-.21-1.4-.12-2.83-.26-4.23s-.4-3-1.76-4a13.74,13.74,0,0,1,1.18,3.28,97.86,97.86,0,0,1,.43,10.35,54,54,0,0,0,0,3.23,1.25,1.25,0,0,1,.07.41c-.28,1.44-.53,2.87,1.05,3.8a.1.1,0,0,1,.09.12l.09,0,0,.09a4.59,4.59,0,0,1,.4.33A5.73,5.73,0,0,1,222.37,204.19Z"/><path class="cls-1" d="M176.39,94.53l-.28.23a1.58,1.58,0,0,1,.41,1.58,25.34,25.34,0,0,0-.2,4.69,11.14,11.14,0,0,1-.09,1.67,5.16,5.16,0,0,1,.29.68c.3-1.18.18-2.41.39-3.6,0-1.13.15-2.27.13-3.4C177,95.74,177.26,94.92,176.39,94.53Z"/><path class="cls-1" d="M218.95,183.31c-1.12-4.38-1.72-8.9-3.37-13.15a16.89,16.89,0,0,1,2,5c.51,2,.92,4.09,1.35,6.14a3.32,3.32,0,0,1,0,2.09Z"/><path class="cls-1" d="M181,108.4a5.52,5.52,0,0,1-.29-1.16h0l-.83,2.12a5.69,5.69,0,0,1-.91-2.12l-.36,0a5.51,5.51,0,0,1,.18.7,5,5,0,0,1,1.12,2.37c.38-.23.26-.89.9-.95l.17,1.1a1.92,1.92,0,0,0,.44-1.13A5.15,5.15,0,0,1,181,108.4Z"/><path class="cls-1" d="M291.56,94.35c-1.23.66-2.42-.2-3.64-.1-2.68-.24-4.67-2-6.89-3.28A27.87,27.87,0,0,0,291.56,94.35Z"/><path class="cls-1" d="M193.19,125.39l.14.23a27.81,27.81,0,0,0,2.7,3l-.28.22a15.68,15.68,0,0,1-3.62-3.93l.31-.21Z"/><path class="cls-1" d="M199.57,132.36l-2.86-2.59.29-.22a16.85,16.85,0,0,1,2.87,2.58Z"/><path class="cls-1" d="M190.42,122.94l-.17-.24c-.12-.36-.58-.65-.2-1.1l.56.58.65.83.54.57v0l.63,1.07-.31.21-.54-.52-.19-.22Z"/><path class="cls-1" d="M196.54,129.09l.46.45-.29.22-.38-.41Z"/><path class="cls-1" d="M196.26,128.82l.29.27-.21.27-.3-.27Z"/><path class="cls-1" d="M196,129.09l-.29-.29.28-.22.23.23Z"/><path class="cls-1" d="M471.86,90.94l.07.23-.25,0A.55.55,0,0,0,471.86,90.94Z"/><path class="cls-1" d="M406,108.37l-1,1.12-1.35,1.41c-2.94,2.84-5.56,6-9.08,8.24a24.15,24.15,0,0,1-3.85,2.16c-4.86,2-9.7,4-15,4.62-.65.08-.76.47-1,1-.83,2.18.64,4.05.72,6.1a6.44,6.44,0,0,1,.14,1.55c-.45,2,.52,2.88,2.17,3.69a37.34,37.34,0,0,0,5.84,2.26v0c.19.34.57.29.86.41a9.84,9.84,0,0,0,2.64,1c.37.22.75.43.57,1l-.62-.35a8.38,8.38,0,0,0-2-.67l-.33-.19-3.16-1.13-1-.37c-2.22-1-4.4-2.06-6.92-2a1,1,0,0,1-.45-1.41c.17-.34.6-.76.16-1.16-2-1.74-3.11-4.4-5.93-5.15l-.7-.26h0a68.18,68.18,0,0,0-6.6-3l-3.72-1.75c.62-.32,1.2.19,1.84.26.95.44,1.92.85,2.84,1.33,3.94,2.07,8.68,2.81,11.44,6.9a1.1,1.1,0,0,0,1.93-.68c.17-2.65-.53-5-2.81-6.61.31-.5.88.27,1.43-.45-4.77.4-9.23-.66-13.76-.91-2.73-.61-5.57-.41-8.27-1.37-2.86-1-5.87-1.54-8.52-3.19a14.38,14.38,0,0,0-3.93-2h0c-.63-.85-1.66-1.06-2.53-1.52l-4.78-2.82.21-.32.49.07a1.92,1.92,0,0,0,1.16.6l.56.27a1.15,1.15,0,0,0,.88.56,5.26,5.26,0,0,0,1.92,1l.08,0,0-.08s-.06.07-.05.1a1,1,0,0,0,.07.18,71,71,0,0,0,6.9,3.8l.07,0,0-.07a.83.83,0,0,0,.73.52,6.24,6.24,0,0,0,2.57.66v0c.24.52.78.49,1.21.66,4.12,1.63,8.48,2,12.84,2.29a70.11,70.11,0,0,0,11.47.75c-.4-.57-1.11.09-1.31-.8.67-.08,1.43-1,1.87.14.31.82.77.7,1.29.64,1.75-.21,3.49-.42,5.22-.72,4.79-.82,9.09-2.93,13.3-5.24a9.58,9.58,0,0,0,3.64-2.53c2.66-1.28,4.17-3.8,6.17-5.79a3.26,3.26,0,0,0,1.13-1.12c.72-.73,1.63-1.29,2-2.32v.05c.45.1.59-.71,1.11-.38Zm-32.12,18.72c.35-.28.66-.56.41-.93a.75.75,0,0,0-1-.13Z"/><path class="cls-1" d="M559.37,57c.1.3.07.52-.29.59C559,57.35,559,57.12,559.37,57Z"/><path class="cls-1" d="M547.89,84.31l.33-2.27c.8-1.16.73-2.7,1.69-3.78A28.92,28.92,0,0,1,547.89,84.31Z"/><path class="cls-1" d="M549.9,78.29a1.84,1.84,0,0,1,.59-1.75A2.69,2.69,0,0,1,549.9,78.29Z"/><path class="cls-1" d="M546.74,87.75a.67.67,0,0,1,.3-.89C547,87.17,547.17,87.56,546.74,87.75Z"/><path class="cls-1" d="M547,86.89a.67.67,0,0,1,.3-.89C547.35,86.33,547.41,86.69,547,86.89Z"/><path class="cls-1" d="M547.31,86a.7.7,0,0,1,.3-.89C547.63,85.47,547.69,85.82,547.31,86Z"/><path class="cls-1" d="M547.6,85.17a.73.73,0,0,1,.3-.89C547.88,84.6,547.94,85,547.6,85.17Z"/><path class="cls-1" d="M550.48,76.57c-.07-.35-.1-.69.3-.88C550.78,76,550.86,76.37,550.48,76.57Z"/><path class="cls-1" d="M546.77,88a.69.69,0,0,1-.32.59.68.68,0,0,1,.31-.89Z"/><path class="cls-1" d="M55.68,272.15l-.19,0,.05-.18Z"/><path class="cls-1" d="M243.08,365.07c-1.43,2.89-3.16,5.66-3.08,9.1,0,2.08-.16,4.17-.27,6.25a2,2,0,0,1-1.2,1.78c-.32-.5.3-.68.35-1.06.85-1.59.37-3.32.5-5v-1.67c.21-4.66,2.8-8.52,4.35-12.73a3.87,3.87,0,0,0,.27-2.33c-.53-2.27-1-4.54-1.45-6.84-.17-1-1.3-1.44-1.15-2.51h.33l.5.38c1.14,2.47,1.31,5.19,2,7.76a5.78,5.78,0,0,1-.43,4.52,9.82,9.82,0,0,0-.48,1.33c-.18.32-.43.62-.25,1Z"/><path class="cls-1" d="M271.79,18.62c-.81.74-2,.69-2.87,1.18l-.58.15a.37.37,0,0,0-.17-.06l-.19-.28C269.23,19.26,270.41,18.54,271.79,18.62Z"/><path class="cls-1" d="M474,336c-1.16,2.54-2.75,4.84-4.06,7.3-.26.49-.68.92-.59,1.55h0c-.43,0-.52.27-.6.6l0,0-.37.57a33,33,0,0,1-2.51,4.32l-.29.57,0,0-.3.6,0,0a.87.87,0,0,0-.3.75c-.27-.11-.27.07-.27.26l-.3.46v0l-.87,1.44h0l-.32.57-2.5,3.79-.24-.22,5.39-9.54.32-.55a12,12,0,0,0,1.67-2.92h0a.51.51,0,0,0,.29-.59v0l.36-.59.23-.28a18.26,18.26,0,0,0,1.81-3.12l3.12-5.09Z"/><path class="cls-1" d="M458.46,363l-2.44,4.3c-.21,1.21-1.17,2-1.72,3l-2.08,3.39-.29-.25,1.65-3.26h0c.26-.12.28-.36.3-.6v0a3.73,3.73,0,0,0,1.16-2v0a3.36,3.36,0,0,0,.94-1.23c1.52-2.62,3.06-5.24,4.6-7.85l.24.22Z"/><path class="cls-1" d="M452.22,373.65c-1.2,2.13-2.41,4.26-3.6,6.4-.23.41-.4.84-.6,1.26-1.85,3-3.51,6.09-5.13,9.2a74.78,74.78,0,0,0-3.72,6.56h0c-.3.09-.32.32-.29.58h0a.83.83,0,0,0-.57.86h0a.91.91,0,0,0-.57.87h0c-.45.14-.48.65-.79.91l-.26-.22,1.1-2,0-.08.29-.49q5.8-9.76,11.14-19.78l.56-.94h0l.3-.6v0l1.78-2.78Z"/><path class="cls-1" d="M236.55,384.75c-1.06,1.3-.46,2.69-.2,4,.17.88.44,1.75.66,2.62l0,1.34-.51.59h-.31c.68-2-.25-3.82-.62-5.69-.17-.89-.48-1.75.14-2.58C236,385,236.12,384.48,236.55,384.75Z"/><path class="cls-1" d="M235.65,394.21c-.13-.51.14-.75.59-.87C236.22,393.75,236.11,394.1,235.65,394.21Z"/><path class="cls-1" d="M167.41,55.74c.8.79.45,2.08,1.27,2.86.85-1.46,1-1.46,2,0,.52.77,1.18,1.81,2.14,1.09,1.94-1.47,2.74-1.82,1.52-3.48.43-.62.81-1.33,1.76-1.17-.39,1-.4,2,.92,2.27.68.15.78.77,1.18,1.15.18.39.5.73.45,1.2h0c-.4,0-.77.07-.85.57l0,0c-.73-.1-.9,1.48-1.87.63-.23-.2-.34-.71-.74-.41a1.3,1.3,0,0,0-.45.85c0,.42.43.48.72.54.72.14.88.46.5,1.09-.16.26-.4.53-.17,1,.76-.76.69-1.9,1.37-2.62l.36.35c-.22.52-.4,1.06-.66,1.56s-.2,1.08.49,1.32l-.12.57,0,0a15,15,0,0,0-2.28-.65c-.52-.07-1.15-1-1.7.18-.2.41-1-.11-1.59-.12s-1.09-.25-1.63,0l-.12-.3-.16.12.29.18c.44.89-.39,1.89.52,3-1.5-.41-1.19-1.64-1.15-2.12.09-1.11-.91-.64-1.15-1.11-1,1-2,0-3.06.19-.71-.21-.71-1.18-1.46-1.35a6.8,6.8,0,0,0-4.15.35c-.62.24-.48,1.23-1.26,1.34l-.12-.55c.15-.22.62-.43.44-.64-.34-.38-.84-.27-1.25,0-1.25,0-1.45,1.12-2,1.86S155,67.16,154,67.4c.08-1.12.93-1.89,1.31-2.87s-.13-1.42-1.66-1.39v0c.27-1.61,2.14-2.1,3.91-1-.2.28-.84,0-.77.63v.12h.12c.61,0,1.23-.09,1.84-.09,1.76,0,3.32-1.24,5.14-.75,1.6,2.3,2.8,2.51,5,1,.49-.34.68-.69.46-1.16a23.57,23.57,0,0,0-1.9-3.92v0c0-.25,0-.5-.29-.59v0c0-.33.07-.67-.29-.87h0c0-.25,0-.49-.29-.58h0c0-.52,0-1.05,0-1.57.17-1.77-.11-3.25-1.93-4.15a1.73,1.73,0,0,1-1-1.71l.56.31a2,2,0,0,0,1.42,1.2l0-.08a2.41,2.41,0,0,0,1.44,1.44h0C167.34,52.79,166.82,54.3,167.41,55.74Z"/><path class="cls-1" d="M174.6,63.59l.25-.09s-.06-.09-.09-.1a1.53,1.53,0,0,0-.26,0Z"/><path class="cls-1" d="M221.89,49.75l-4.83,3.69c-1.46.75-2.47,2.17-4.06,2.73a1.34,1.34,0,0,1-1,.88A4.38,4.38,0,0,1,210,58.77a4.29,4.29,0,0,1-1.13.74h.05a5.92,5.92,0,0,1-3.68,1.91,10.68,10.68,0,0,1-2.53,1,51.6,51.6,0,0,1-5.8,2.13.7.7,0,0,1-.77.1c0,.52-.92.25-.79.89a1.34,1.34,0,0,0,1.11-.12l.52-.08v0a28.79,28.79,0,0,1,4.65-1.86l7-2.76.28-.24,5.25-4v0l.29-.26,2-1.47.32-.28h0a1.82,1.82,0,0,1,.85-.72c.16-.5.71-.43,1-.7l3.52-3Z"/><path class="cls-1" d="M185.8,64.21c-.33,0-.59.11-.59.43,0,.88-.56.8-1.14.7l0,0-.44-.45a1.14,1.14,0,0,0-1.43,0c-.13.11-.28.21-.16.42l0,0c-.14-.19-.33-.11-.51-.08,0-.61-.43-.94-.85-1.27l-.37.54c-.87.59-1.71-.21-2.58-.06-.16-.67-.76-1.4.39-1.84.36-.14.32-.54.16-.87s-.53-.29-.84-.14l-.36-.35c.17-.38.75-.52.63-1.07l0,0c.46.08.61-.31.85-.57h0l1.1-1.18a2.12,2.12,0,0,0,1.56-1.95c.13-1.5.45-3,.71-4.47.14-.77.07-1.24-.91-1.31-.64,0-1.48,0-1.72-1h0l-.1-.06,1.37-.72c.4.11,1-.41,1.14.5.06.41.38.27.67-.05s.48-.84,1.07-.7a4.92,4.92,0,0,0-.94,2.79c-.2,1.31-.43,2.61-.58,3.92-.06.49-.16,1.06.34,1.45l.62.75q0,.13-.05.25c-.17.19-.44.38,0,.51l.52.13c.23,1.38,1.28,2.52,1.19,4l-.11.19.11-.07.54.19c.15.35.6.53.56,1l0,.38Zm-4.44-1.37-.28-.21a.77.77,0,0,0-.1.25c0,.14.05.29.24.23S181.3,63,181.36,62.85Z"/><path class="cls-1" d="M185.56,42.29c.64-1.5-.17-3,0-4.49,0-.51,0-1,0-1.62.58.29.44.82.48,1.24.12,1.23.19,2.46.28,3.68,0,.53.09,1.05-.46,1.39Z"/><path class="cls-1" d="M185.19,47.31l-1.69,1.45A9.06,9.06,0,0,0,185,43.22c0-.29.4-.62.61-.93l.27.19c-1,1.35-.63,2.8-.32,4.25Z"/><path class="cls-1" d="M224.48,48.17l-.19.37-.91.54C223.6,48.34,223.84,48,224.48,48.17Z"/><path class="cls-1" d="M544.74,139.37a5,5,0,0,0,2.59-.61q7.31-2.57,14.6-5.17l1-.39.22.21-.8.73a.28.28,0,0,0-.14,0,74.78,74.78,0,0,0-8.32,2.85l-3.8,1.36-1.64.46A54.77,54.77,0,0,0,543,141.1C543.28,140.21,544.6,140.37,544.74,139.37Z"/><path class="cls-1" d="M563,133.2c.12-.57.69-.75,1-1.16l.83-.74a15.44,15.44,0,0,0,2.23-1.8l.28.3-1.83,1.81-.29.24-.37.3h0l-.27.27,0,0-.27.27,0,0-1,.71Z"/><path class="cls-1" d="M567,129.5a3.72,3.72,0,0,1,2.29-1.29,2,2,0,0,0,1.54-1.12l.7-.29.23.32a6.24,6.24,0,0,1-2.34,1.65,4.33,4.33,0,0,0-2.14,1Z"/><path class="cls-1" d="M599,100.09l.38.07,6.2.55a4.88,4.88,0,0,1-3.75.24,10.62,10.62,0,0,0-7.45,1.12l-.85.41a1.17,1.17,0,0,0-.88.44h0c-.27,0-.52-.07-.59.29h0a3.42,3.42,0,0,0-2.68.87l-.2.28c-.42.24-.55.85-1.14.88a2.71,2.71,0,0,1,2-2.13C593,102.14,595.85,100.68,599,100.09Z"/><path class="cls-1" d="M610,100.52a3.7,3.7,0,0,1-3.75.46c1.14-.32,2.44,0,3.48-.72Z"/><path class="cls-1" d="M610.5,100.25l-.49.27-.27-.27.58-.28Z"/><path class="cls-1" d="M434.33,401.62c.11.76-1.16,1.5,0,2.27-.7-.28-1.84.67-2.12-.77a4.35,4.35,0,0,0,.14-2.22C433.13,400.84,433.63,401.52,434.33,401.62Z"/><path class="cls-1" d="M434.15,404.46c.64,1.85.5,2.1-1.19,2.09l0,0c-1.35-1.32.53-1.26.81-1.88Z"/><path class="cls-1" d="M433.8,404.69c-.37-.26-.68.27-1.13,0a.91.91,0,0,1,1.48-.27Z"/><path class="cls-1" d="M330.31,432.64c.25-1.59-1.28-2.26-1.87-3.42a18.59,18.59,0,0,0-2.89-3.44,12.29,12.29,0,0,0-1.2-2.64,1.7,1.7,0,0,0-.58-1.15l-.49-1.11.34-.21a1.42,1.42,0,0,0,1.43.69,1.65,1.65,0,0,1,1.38.51l.11.31v2.16l.31,0,.3-1.63a2.15,2.15,0,0,0,2-.67c.32.11.61.22.64.65,0,.61,0,1.32.59,1.68s.92-.7,1.62-.59c.16,1.31-.17,2.78,1.16,3.71-.45,1-.43,2.12-1.43,2.84-.48.35,0,.73.2,1.1a1.4,1.4,0,0,1-.2,1.71C331.14,433.63,330.69,433.08,330.31,432.64Z"/><path class="cls-1" d="M594.1,223.26a4.38,4.38,0,0,1-2.51-1.82,4.49,4.49,0,0,1-3.25-1.66c-.67-.21-1.06-.92-1.78-.7a2.47,2.47,0,0,1,.63,1,84.46,84.46,0,0,0,5.51,3.34,2.62,2.62,0,0,1,1.47.71l.21-.23C594.29,223.67,594.16,223.47,594.1,223.26Z"/><path class="cls-1" d="M615,240.73a4.83,4.83,0,0,1,1.78,1.56,3.56,3.56,0,0,0-.43-.66,10.69,10.69,0,0,1-1.46-1.25,8.68,8.68,0,0,1-1.4-1.17l-.07-.09-.1.51a3,3,0,0,0,.46.45Z"/><path class="cls-1" d="M595.87,224.56c.63.57,1.5.82,2,1.53l-.3.31-.4-.11-.49-.43a17.31,17.31,0,0,0-2.53-1.76l.21-.23Z"/><path class="cls-1" d="M619,244.29c-.8-.24-1.22-1-1.86-1.44C618.14,242.81,618.63,243.45,619,244.29Z"/><path class="cls-1" d="M619.62,245.11l-.63-.82c.81,0,1.19.46,1.43,1.14l-.54-.06v0l-.28-.28Z"/><path class="cls-1" d="M620.7,245.72a.26.26,0,0,1-.28-.28Z"/><path class="cls-1" d="M171.48,66.94l.87.19c-.51.37-.88.37-1.24,0Z"/><path class="cls-1" d="M173.16,81.7c.71-.19.46.61.81.79l0,.33A9.67,9.67,0,0,1,174,86.2c-.24,3.05-1.55,6.44,2.35,8.34l-.28.23a20.26,20.26,0,0,1-2.56-2,1.48,1.48,0,0,1-.54-1.5c.25-2.16.46-4.32.69-6.48a3.31,3.31,0,0,0-.49-2,.21.21,0,0,0,0-.17Z"/><path class="cls-1" d="M339.61,120.34l-1.25-.89.3-.24,1.14.85Z"/><path class="cls-1" d="M337.72,118.69c.29,0,.58.3.87,0h0c-.15.19,0,.34.06.51l-.3.24C338.1,119.24,337.62,119.2,337.72,118.69Z"/><path class="cls-1" d="M340.46,120.91l-.86-.58.19-.28.87.57Z"/><path class="cls-1" d="M341.27,121.46l-.81-.54.2-.29a1.56,1.56,0,0,1,.84.6Z"/><path class="cls-1" d="M336.29,117.83c.37,0,.62.17.6.59C336.62,118.29,336.32,118.2,336.29,117.83Z"/><path class="cls-1" d="M336.86,118.41a.78.78,0,0,1,.89.3C337.35,118.92,337.1,118.67,336.86,118.41Z"/><path class="cls-1" d="M336,117.47l.31.38C336,117.86,335.77,117.87,336,117.47Z"/><path class="cls-1" d="M329.41,114.13v0Z"/><path class="cls-1" d="M188.95,120.42c-.76,0-1-.52-1.15-1.14C188.57,119.27,188.62,120,188.95,120.42Z"/><path class="cls-1" d="M189.74,121.07l.34.56c-.29.28-.55.09-.82,0,0-.41-.59-.68-.32-1.18Z"/><path class="cls-1" d="M187.49,118.71a.79.79,0,0,1,.26,0c.07.17.19.34,0,.53C187.52,119.17,187.35,119,187.49,118.71Z"/><path class="cls-1" d="M183,113.75l-.18-.52c1.15-.32,1,1,1.55,1.31l-.34.22c-.26-.1-.38-.49-.75-.39h0C183.33,114.08,183.13,113.92,183,113.75Z"/><path class="cls-1" d="M185.51,116.38h-.29l-.85-.82,0,0-.35-.77.34-.22A3.38,3.38,0,0,1,185.51,116.38Z"/><path class="cls-1" d="M186.91,117.54c.17.4.58.68.58,1.16C186.81,118.56,186.2,118.38,186.91,117.54Z"/><path class="cls-1" d="M181.93,111.57c.31.28.7.51.59,1.08-.55,0-.67-.41-.81-.79Z"/><path class="cls-1" d="M185.55,116.94l0-.54c.5-.16.55.19.61.53a2,2,0,0,0-.17.22Z"/><path class="cls-1" d="M180.91,110.66l.6.28a2,2,0,0,0,0,.23l-.22.29A1,1,0,0,1,180.91,110.66Z"/><path class="cls-1" d="M181.71,111.86l-.38-.4.22-.29.37.39Z"/><path class="cls-1" d="M186.13,116.92c.11.1.22.21.06.34s-.15-.07-.23-.11A2.05,2.05,0,0,1,186.13,116.92Z"/><path class="cls-1" d="M296.71,96.6c.58-.66.86-.08,1.19.29C297.44,97.06,297.13,96.62,296.71,96.6Z"/><path class="cls-1" d="M299,97.74c.47-.08.79.06.86.58A1,1,0,0,1,299,97.74Z"/><path class="cls-1" d="M298.19,97.17c.42,0,.8,0,.86.57A1,1,0,0,1,298.19,97.17Z"/><path class="cls-1" d="M299.9,98.31c.31-.14.49,0,.58.29A.62.62,0,0,1,299.9,98.31Z"/><path class="cls-1" d="M297.9,96.89c.18,0,.31.07.29.29Z"/><path class="cls-1" d="M535.54,110.94c0-1.29,1.49-1.84,1.55-3.1l-.07,0a4.88,4.88,0,0,0,2.29-2.88h0a3.27,3.27,0,0,0,1.47-2l.24-.15a2.83,2.83,0,0,0,.9-1.57q1.94-5.72,3.91-11.43c.15-.43.16-1,.63-1.22l-.28,1.17-.06.61a.18.18,0,0,0-.1.14c-1.31,3.95-2.72,7.86-3.9,11.86a10.4,10.4,0,0,1-1.38,2.28.33.33,0,0,0-.33.31v0a13.26,13.26,0,0,0-2.88,4l0,0c-.21,0-.29.13-.31.31l0,0-.31.31v0c-.28.1-.35.36-.44.6l-.1,0,0,.1-.31.46v0l-.3.27Z"/><path class="cls-1" d="M471.91,91.16l.3.6Z"/><path class="cls-1" d="M472.2,91.73l.3.61Z"/><path class="cls-1" d="M411.65,153.13a5.79,5.79,0,0,0-1.58-2.15c-.08-.14-.36-.23-.11-.45,1.54.59,2,2,2.54,3.36s.64,3,1.47,4.26v0a1,1,0,0,0,.29,1h0a.27.27,0,0,0,0,.26l0,.47-.79-.58a.17.17,0,0,0-.05-.14c0-.34.05-.69-.27-.93a.66.66,0,0,0-.06-.22.64.64,0,0,0-.21-.69.25.25,0,0,0-.05-.17.72.72,0,0,0-.22-.71.2.2,0,0,0,0-.16A8.68,8.68,0,0,0,411.65,153.13Z"/><path class="cls-1" d="M407.68,149.1c.46-.23.77.17,1.15.28h.24c.09.55.85.55.9,1.13A3.57,3.57,0,0,1,407.68,149.1Z"/><path class="cls-1" d="M403.46,145.82a3.34,3.34,0,0,1-2.07-1.24C402.51,144.44,402.91,145.27,403.46,145.82Z"/><path class="cls-1" d="M406.81,148v.3c-1,0-1.53-.76-2.19-1.3l.27-.24c.74.13,1,1.14,1.92,1v-.05s-.06.07-.05.1A1.19,1.19,0,0,0,406.81,148Z"/><path class="cls-1" d="M404.62,147c-.36-.27-.84-.41-1.07-.94.66-.12,1,.38,1.35.7Z"/><path class="cls-1" d="M406.8,148.24c.45.13.91.25.88.87C407.27,148.94,406.79,148.84,406.8,148.24Z"/><path class="cls-1" d="M486.36,167.65c.26.82-.31.59-.69.63a1.36,1.36,0,0,1-2.19.18,3.62,3.62,0,0,1,.21-3.3,1.43,1.43,0,0,1,1.23-1.09c.45,0,.76.54.74,1.09,2.16,1.29,4.48.16,6.7.46.38.05.88-.24,1.06.38.22,0,.33.06.28.29.94.67.83,1.33,0,2-.56.64-1.13.73-1.69,0a3.27,3.27,0,0,1-2.21.13c-.49.28-1,.7-1.54.17a5.3,5.3,0,0,0,1.36,3.19,1.27,1.27,0,0,0,1.63.53c.8-.49,1.89.72,2.47-.52,0,0,.33,0,.36.09a.72.72,0,0,1,.05.53,1.89,1.89,0,0,1-2.06,1.19,7.26,7.26,0,0,0-2.4.16,1.25,1.25,0,0,0,.14,1c0,.08.16.18.14.22s-.22.08-.33,0a.73.73,0,0,0-1,.66c0,.39-.07.8.61.89s.49.83.39,1.28c-.15.65-.85.42-1.06.25-.94-.75-1.88-.29-3.22-.19l2.34.72c-1.12.49-2,1.27-3.15,1.21-.39,0-.41.49-.16.61,1.24.63.29,1-.11,1.5s-.71,1.26-1.47,1.49c0,1.43-.55,2.8-.39,4.24l.29.26c-.2.2-.31,0-.42-.1l-.72-.11c.29,1.11,1.58,1.05,2.15,1.84l.59.24c.49,0,.9.58,1.46.27l-.9-.82-.55-.28c.23,0,.46,0,.55.27a2.12,2.12,0,0,1,2.16.53,2,2,0,0,0,2.38.1,1.54,1.54,0,0,1,.06-2.43,5.84,5.84,0,0,0,.84-1.56c.54.83.25,1.68.29,2.48.68-.34,1.08-.18,1.08.64s.25,1.29,1.17,1.06l.17-.79c.63,1,.63,1-.11,1.18-2.42.69-4.76-.16-7.14-.37.1.76.69.8,1.26.86a18,18,0,0,1,2.47.37c-1.47-.15-2.16.81-2.74,1.9-.41-.37-.19-.62-.09-.86s.58-.7,0-.94-.73.18-.84.66c-.25,1.17-.31,2.19,1.31,2.33a2.87,2.87,0,0,1,.89.43l.75-1.12c.79.89,2.1,1.36,2,2.85,1.08-.28,2.11.78,3.21.13.91-1.08,1.52,0,2.22.34.38.16.34.24,0,1.13-.09.27-.18.54-.27.81a1.51,1.51,0,0,1,2,0c0-.82-.65-1.46-.57-2.3,1.65.11.91,1.47,1.18,2.3h.44l.11-2.31c-.1-1.16-1.25-2.13-.62-3.42a5.37,5.37,0,0,1-.49-.69c-1-1.91-.66-2.48,1.42-2.79,1.12-.17,2.44,0,3-1.37a21.63,21.63,0,0,1,2-3.91.89.89,0,0,1,.94-.47c1,.07,2,0,3,0,0,.35-.22.35-.4.37-1.79.19-1.83.31-.91,1.95.38.67.3,1.47.78,2.18s.81.76,1.38.21.86-1.06,1.64-1c.33-.24.53-.11.64.23a3.11,3.11,0,0,1,1.68.39l1.13.6c.27-.09.35-.32.43-.56-.61-.38-.19-.77,0-1.17-.09-.43,0-1.06-.79-.69-.55.25-1,0-1.46-.41.24-.59,2.18-.4.62-1.84a19.59,19.59,0,0,1,4.47,1.12c.32.1.63.35.57.73-.37,2.35-.19,4.75-.69,7.08,0,3.71-.66,7.38-.57,11.09,0,1.37-1,1.47-1.94,1.56-2,.19-4.07.36-6.11.53l-2.26,0v0c-.33.34-.76.29-1.17.33l-1.14.23c-.89,0-1.89.27-2.06-1.08l-.52.21.09.53c.39.23.42.69.65,1l.61.07c.67-.19,1.37-.29,1.81.35a1,1,0,0,1-.41,1.45l-.16,2.3c.64.52,1.76-.1,2.17.77a4.74,4.74,0,0,1,.44,3.33c0,.52-.49.67-.68,1s-.12.93.27.93c1.55,0,1.12,1,1,1.84-.18,1.6.18,1.9,1.7,1.3l-.45-1.38c-.39-.3-.44-.59.05-.82a2.92,2.92,0,0,1,1.73-.35c.85-.55.64-1.26.31-2-.82-.18-1.43.72-2.37.35-.73-.29-1.11-.6-1.08-1.38a22.87,22.87,0,0,1,.28-3.93c0-.75-.13-1.53.49-2.14a1.29,1.29,0,0,0,.22-.51c.19-.59-.78-1.26-.09-1.68a5.63,5.63,0,0,1,2.76-.51,5.35,5.35,0,0,1,.71.06c1.26-.51,2.6-.29,3.9-.48.69-.1.91.32.86,1a59.33,59.33,0,0,1-.52,6.05,10.53,10.53,0,0,1-.31,3.5c-.22.71-.47,0-.69.07,0,.23-.06.46-.33.49a.28.28,0,0,1-.34-.31c0-.28.21-.36.44-.41-1-.78-.79.12-.71.54.17.91-.15,1.23-1,1.06-.71,1.4-.42,2.94-.67,4.41-.12.72-.14,1.48-1.22,1.27l-.54.11a6.68,6.68,0,0,1,3.25,1.58c.1-1.46,1.36-2.57,1.32-4.12A19.45,19.45,0,0,1,515,228a58.53,58.53,0,0,1-.6,8.84,6,6,0,0,1-.34,2.91c.35,2.71-.19,5.39-.33,8.09-.26,4.94-.67,9.88-1.05,14.81a26.25,26.25,0,0,1-.5,4.65l-.3.56-.3.56-.28.58-.3.56a62.37,62.37,0,0,1-3.12,6.63l-.33.54a9.26,9.26,0,0,1-1.47,2.56h0a1.19,1.19,0,0,1-.58.87,596,596,0,0,1-.57,1.15,1.09,1.09,0,0,1-.58.86.63.63,0,0,1-.29.57,2.08,2.08,0,0,1-.86,1.44.58.58,0,0,1-.29.57.62.62,0,0,1-.29.57,1,1,0,0,1-.58.86c0,.22,0,.45-.28.57a1,1,0,0,1-.58.86c0,.22,0,.45-.28.57a1.92,1.92,0,0,1-.86,1.44c0,.22,0,.46-.29.57a55.62,55.62,0,0,1-3.59,6.62,26.42,26.42,0,0,1-2.43,4v0l-.3.44h0a1.12,1.12,0,0,1-.58,1h0c0,.22,0,.48-.28.57h0a.31.31,0,0,1,0,.26l-1.61,3,.27.23c1.39-2.37,2.72-4.78,4.17-7.11,1.07-1.71,1.76-3.66,3.19-5.14a.57.57,0,0,1,.29-.58c0-.21,0-.39.28-.43h0a.62.62,0,0,1,.29-.71l.15-.28.34-.11c-.33-.48,0-.69.36-.9a.5.5,0,0,1,.29-.57.54.54,0,0,1,.29-.58h0a2.16,2.16,0,0,1,.88-1.43.5.5,0,0,1,.29-.57.56.56,0,0,1,.29-.58h0a1,1,0,0,1,.59-.86.51.51,0,0,1,.29-.57c0-.18.05-.32.27-.3a1,1,0,0,1,.59-1.14.5.5,0,0,1,.29-.57.6.6,0,0,1,.29-.58h0a1,1,0,0,1,.59-.86.49.49,0,0,1,.29-.57h0c.16-.48.27-1,.88-1.15l-.06-.07a4.13,4.13,0,0,1,1.19-2.22l0,0a.52.52,0,0,1,.29-.58.7.7,0,0,1,.28-.61l.31-.53.57-1c.69-2.4,2.06-4.49,3.11-6.73a8.66,8.66,0,0,0,.94-3.4c.1-2.52.22-5,.56-7.54.25-1.87-.12-3.82.63-5.63.18-9.7,1.21-19.34,1.82-29,.27-4.31.65-8.61,1-12.92l.11-.61V209a1.81,1.81,0,0,1,0-.28c-.29-1.79.24-3.54.31-5.31a24.4,24.4,0,0,1,.54-6.17c0-3.5.55-7,.8-10.44.07-.91.62-.87,1.19-.6a72,72,0,0,1,6.84,3.16,24.8,24.8,0,0,1,5.3,2.45,86.48,86.48,0,0,1,8.75,3.86,5.07,5.07,0,0,1,2.43,1.3l0,0c1.25-.07,2.16.83,3.27,1.18a31.47,31.47,0,0,1,3.22,1.41l1.44.27c-1.74-1.39-3.92-1.86-5.89-2.77-5.36-2.49-10.76-4.88-16.13-7.35-.23-.11-.79-.08-.79-.5l-.13,0a4.59,4.59,0,0,1-1.78-.67.3.3,0,0,1-.25-.17,4.38,4.38,0,0,1-.78-.76V188c-2.21-1.06-4.56-1.68-6.57-3.08a2,2,0,0,1-1.27-.31c-2.1-.11-4-1.07-6-1.44a15.45,15.45,0,0,0-3.2.24c-1.82.43-3.39-.62-5.1-.85,1.37,1.09.52,2.12-.07,3.17-.28.49-.5,1-.75,1.53-.42.94-.89,1.82-2.15,1.68,0,0-.07.07-.11.08-3.13.84-3.13.84-3.2-3-.08-.27-.23-.64,0-.81,1-.7,2.08-.45,3.14-.35.76.07,1.47.4,1.43,1.39,1.08-.59.65-2,.46-2.35-.57-1-.28-2.19-1.15-3a2.24,2.24,0,0,1-.77-1l-.08-.09h.17a2.09,2.09,0,0,1,.92.78l.47.14c0-1-1.6-1.17-1.22-2.36l0,0a4.82,4.82,0,0,1-1.28-3c-.18-1.1,1.08-.74,1.58-1.2.32-1.34,1-2.6.93-4-.11-1,.26-2-.36-2.88-.12,1.46-.21,2.92-.38,4.37,0,.37.28,1.26-.74.86.23,1.41-.85,1.52-1.76,1.66a47.75,47.75,0,0,1-7.25.26,5.25,5.25,0,0,1,2.8-.13,5.21,5.21,0,0,0,4.46-1.57c.33-.29.54-.76.92,0,.57,1.11.51-.25.81-.22.58-1.58.27-3.25.46-4.88.07-.55,0-1,.7-1.12-.25-1-.68-1.66-2-1.51-.69.08-1.39-.58-2.16-.43-.54.1-1,.8-1.63.38-.2-.12-.53-.18-.59-.35-.13-.34.2-.49.46-.58s.57-.22.61-.53c.19-1.53.91-.87,1.59-.4a3.64,3.64,0,0,0,2.43.94,1.41,1.41,0,0,1,1.59,1.74c.39-.7.21-1.57,1.07-1.86h0l.29-.83a2.7,2.7,0,0,1-.36-.19c.69-1.8-1-1.69-1.82-2.1s-1.22-.62-1.27-1.44c-.79-.3-.93.61-1.52.9,0-1.65,1.19-2.71,1.81-4,.43-.86,1.28-.19,1.45.75.58,0,.62-.74,1.13-.82a1.58,1.58,0,0,1,.6-1.19l.71-1.5c-.35-.44-.73,0-1.09-.15-1.62-.49-1.81-.95-.63-2.13.74-.74,1.11-1.78,2-2.33l.29-.29.37-.19q0-.42,0-.85c-.75.06-1,.72-1.38,1.18l-.29.27c-.08,0-.2.12-.23.09s-.08-.23,0-.33l.25-.23c-.18-.93.78-1.33,1.09-2.43-1,1.11-2.1.73-3.05,1.07-.23.27-.51.87-.81.54-.45-.5.34-.57.57-.84.2-.53,0-1.21.58-1.6l.66,0,.2-.05c-1.08-1.07.2-1.87.33-2.8l.17-.85.16-1.75v-1.16l-.45,1.11a1.65,1.65,0,0,1-.77.88c-1.19.84-1.88-.42-2.81-.33.47,1.7-.07,2.62-1.82,2.48-1.52-.12-2.79.55-4.18.75,1,1.8.69,2.28-2,2.84.33,0,.69-.17.95.19.15.1.28.21.18.41l.71-.2a.73.73,0,0,1,1-.32c.82.49.85-.33,1.19-.64s.39-.39.57,0c.58.92,1.81.24,2.45,1l.26.3c.27.59,1.08,1.17,0,1.8l-.21.22-.81.44a1.17,1.17,0,0,0,.56,1.32,1,1,0,0,1,.38,1.36.89.89,0,0,1-1.23.34,9.91,9.91,0,0,0-3.2-.27c-.7-.54-1.16,0-1.66.38v0l-.3.3h0l-.55.5c-.71.54-1-.8-1.67-.39l-.17.46c1.49.55.54,1.92,1,2.83.15.55.32,1.09.44,1.64.09.38.34.89-.42.89s-1.22,1-2,1.19c-.29-.64.06-1.17,0-1.71l-.08,0c-.47.05-.64.51-1,.74s-.76.86-1.26.14a1.32,1.32,0,0,1-.1-.19c-.76-.34-1.66-.51-1.94-1.48l-.23-.12a2.11,2.11,0,0,1-1.54-.93c-1.55-2.1-3.86-3.19-5.9-4.63a9.64,9.64,0,0,1-2.38-2l-2.27-1.33-.74.42a44,44,0,0,1,3.56,2.62l.91.49c.41.31.82.63,1.24.93s.83.53.66,1.11c-.21.74-.8.47-1.29.46s-1,.17-1.21.7c.58.28,1.28.37,1.58,1.05a.77.77,0,0,0,.18.22c.44.42,1.27-.75,1.43.26.08.5-.75.93-.7,1.61a1.53,1.53,0,0,1,0,.28c.46.45,1,.89.11,1.44-1,1-1,2.39-1.73,3.5-.42.67-.8,1.09-1.49.26a1.82,1.82,0,0,0-1.72-.47c-.43,0-.93.08-.58.77.25.5-.07.71-.51.74s-.35-.36-.39-.67a3.12,3.12,0,0,0-.35-1.36c-.37-.56-1.08-.69-1.38,0s-.47,1.14-1.19,1.42c-.38.15,0,.59.21.61,1.27.14,1.15,1,1,1.83a1.66,1.66,0,0,1-1.43.82c-1.15.06-1.32.74-1,1.52.78,1.72,0,3.37-.07,5,0,1-.68,1.25-1.58,1.09-.51-.09-1-.14-1.56-.21-1.48-.46-3.08,0-4.55-.67,1.19-.59.79-1.73.92-2.69l-.41-1c.08,1-.9,1.27-1.45,1.76s-.55.66-.23,1.12l0,0c.18.23.67.48,0,.64l-3.7-.4c1.7-.51,2.06-1.61,1.42-3.69a.76.76,0,0,1-.65-.47h0c-.58-.07-.87-.85-1.57-.64-.57,1.08-3.29,1.67-4.07.87-.4-.41,0-.79.07-1.18a2.16,2.16,0,0,0-1.38.89c-.3.36-.36.78.1.92,1.2.37,1.3,1.37,1.51,2.33l1.68.23a2.65,2.65,0,0,1-1.66.18l-3.67-.51-.91-.06-1.19-.22c-2.73-.38-5.51-.37-8.17-1.18-2.21.29-4.32-.45-6.49-.62-1.7-.13-3.4-.4-5.1-.59-.36,0-.78-.18-.94.35.8.64,1.9-.17,2.68.54l.26,0a9.65,9.65,0,0,1,4.31.54l.29,0c2.13-.13,4.19.47,6.3.6.26,0,.36.28.43.51s0,.68.5,1c-.11-1.34.61-1.35,1.61-1.18,1.95.33,3.91.54,5.88.77a2.65,2.65,0,0,1,1.34.37.69.69,0,0,1,.26,0c.6,0,1.25-.27,1.76.28a3.18,3.18,0,0,0,2.29.31h0l.26,0c.56.19,1.22-.28,1.72.28h0c3.21.19,6.39.75,9.59,1,2.43.2,4.71,1.19,7.19,1,1-.06,1.86-.4,2.82-.36.67,0,1.44-.13,1.53.83s-.84.72-1.31,1a.9.9,0,0,1-.95-.11l0,.88a8.64,8.64,0,0,1-1.66,1.5c-1.42,1.75-.82,3.57-.17,5.38a3.65,3.65,0,0,1,.48,2.18c-.22.8.6,1,.75,1.58l.73-.26c0-.54.31-.77.76-.92,0-.38.06-.76.11-1.14.09-.62.11-1.08-.77-.76-1.28.46-1.25-.49-.88-1.1.7-1.15,1.27-2.19.66-3.57a.69.69,0,0,1,.67-.9.65.65,0,0,1,.78.64c0,1.08.65,1.15,1.42,1A1,1,0,0,1,476,183a.51.51,0,0,0,.58.28c.3-.05,0-.86.54-.43s.11.81-.1,1.17a13.47,13.47,0,0,1-2.35,2.95,2.31,2.31,0,0,1-1.08,1.94,11.44,11.44,0,0,1-2.22,3.61c-1.32,1.49-2.25,3.33-4.08,4.35a3.11,3.11,0,0,1-1.67.68,1,1,0,0,1-.45.65,38.29,38.29,0,0,1-7.91,3.89c-1.33.78-2.53,1.9-4.27,1.65l-.47.15c-.59,1.5-2,1.8-3.31,2.27l-.44,0a8.7,8.7,0,0,1-3.53,1.81,49.29,49.29,0,0,1-5.6,3c-1.77.9-3.58,1.72-5.36,2.61-.79.4-1.26.23-1.51-.6-.13-.43-.27-.82-.76-.94-1.66.88-1-1-1.58-1.35-.36-.09-.76,0-1.08-.24a9.72,9.72,0,0,0-1.11.25c-.41.14-.81.33-.75.9s.42.56.8.67.89-.12.93.42-.57.41-.82.67-2,.09-.71,1.33c-1.34.51,0,2.42-1.56,2.9a14.5,14.5,0,0,0-3.22,1.54c-4,2.45-8.47,4.14-12.61,6.42a3.94,3.94,0,0,1-2.08.44,1.4,1.4,0,0,0-1.53.79l-.08.39c-.3.5-1.07.38-1.32.95a5,5,0,0,1,2.52-.75l.63,0a95.14,95.14,0,0,1,8.57-4.14l1.23-.55a4.37,4.37,0,0,1,1.68-.82h0a1.37,1.37,0,0,1,1.1-.63,66.86,66.86,0,0,1,7.81-3.79,24.47,24.47,0,0,1,4.63-2.34c1.24-.19,2-1.32,3.12-1.67,3.74-1.9,7.5-3.78,11.23-5.7a8.14,8.14,0,0,1,3.68-.76,3.33,3.33,0,0,1,2.3-1.47,2.8,2.8,0,0,0,2-1.25c.56-.75,1.26-1.48,2.37-.82l.09-.43.17-.16.88-.37c.68-1.13,1.92-1.32,3-1.8l4.38-1.8a11.72,11.72,0,0,1,4.62-3.93c0-.24.11-.35.31-.42.67.06.31.64.45,1s.11.93.73,1a1.55,1.55,0,0,1,.17-.2h0l.62.23.88-.07.84-.34c.2-.74.82-.8,1.44-.93,1.5-.33,1.57-.93,1.43-2.42a2.84,2.84,0,0,1,.87-2.71c2.32-1.65,2.3-2-.22-3.24a.63.63,0,0,1-.35-.69,5.7,5.7,0,0,1-.68-.11,6.67,6.67,0,0,1-.78-.36c1-.09,1.39-.5.86-1.65a12.45,12.45,0,0,1,2.43,2.86c.31.41.49.93,1.14.82l-.68-1.25c1.36-.19,1.27-1.14,1-2.11-.14-.55-.44-1-.6-1.59s-1.73-1.85.61-1.36c.32.07.27-.31.27-.53,0-.68.41-.89,1-1,.64-.34,1-1.18,2.05-.75.33.14.55-.37.16-.65-1.1-.78-.43-1.5.09-2.14a30.64,30.64,0,0,0,2.27-2.55c.66-1,1.35.25,2,0-.75-1.81-2-3.41-2.25-5.44l0,0m11.18,7.56c.15.55.35,1.09.54,1.63.25.72.52,1.4-.73,1.38-.33,0-1,.07-.43.88.43.59-.35.77-.79,1-.39-3.57-.39-3.57.72-4.6l.25-.22c-.17-.61-.78-.42-1.24-.64C497.73,174.73,498.29,174.79,498.56,175.83Zm-46.46-2.21c.31-.35.65-.24,1-.11C452.82,174,452.45,173.64,452.1,173.63Zm25.6,15.51a1.45,1.45,0,0,1,.1.26,1.21,1.21,0,0,1-.59,1.16c-.54.3-.67-.09-.83-.43s-.59-.43-1-.52a.65.65,0,0,1-.49-1,.71.71,0,0,1,1-.37C476.49,188.57,476.86,189.33,477.7,189.13Zm6.71-15.71c.28-.62,1.18-.24,1.89-.16-1.07.32,0,1.8-1.28,2C484.8,174.65,484.21,173.86,484.41,173.42Zm-14.63-5.3c.09-.41-.07-1.11.59-1.12s.51.57.58,1,0,1-.57.95A.66.66,0,0,1,469.78,168.13Zm.49,5.82a1.23,1.23,0,0,1-1.48-1c-.13-1.14,1.1-.77,1.62-1.2.85,0,1.58.55,1.56,1.19C471.94,173.76,470.91,173.82,470.27,173.95Zm4.68,3.07c-.11-.15-.49-.25-.17-.48.16-.12.28.13.35.3.93.82,1,2.06,1.53,3.08A10.18,10.18,0,0,1,474.95,177Zm0-2c.45-.83.83-1.17,1.56-.84C476.2,174.73,475.63,174.64,474.93,175Zm8.53-2.77c-.08.48-.63.31-1,.3a7.55,7.55,0,0,1-1.1-.21c-.91.58-2.29.44-2.71,1.78.72,0,1.33-.74,2.13-.36h0c.55-.53,1.18-.1,1.78-.09l-.66.08c.15,1.32-.81,1.51-1.75,1.73.25,1.25.46,2.51.76,3.75.1.45,0,.84-.33,1-.57.18-.53-.4-.6-.72-.26-1.11-.51-2.22-.69-3.35-.15-1-.22-1.91-1.67-1.33l1-.68-1.11-.12a3.13,3.13,0,0,0-1.26-4.62c-1-.44-2-.81-3-1.24a3.4,3.4,0,0,1-1-.59c-.33-.3-.57-.7-.07-1.08s.85-.31,1,.22a1.16,1.16,0,0,0,1.52.86c.59-.12.7.54,1,.84a1,1,0,0,0,.64.2c.35,0,.31-.32.22-.54-.28-.69.27-1,.56-1.51l.14-.76c-.12-.51-.48-.86-1.14-1.27,1-.2,1.73-.43,2,.65,1,.73,2.06,1.39,1.42,2.9-1.29,1-.73,2.35-.84,3.58,0,.43.28.53.67.52a2.2,2.2,0,0,0,2-1.29c.22-.44.13-1.24.86-1s.48,1,.17,1.59C483.08,171.44,483.57,171.6,483.46,172.22Zm-1.37-11.78c-.09.84-.94,1.1-1.78,1.32-1.14.3-1.38-.44-1.75-1.14-.15.06-.22,0-.14-.14a1.63,1.63,0,0,1,.87-1.23,1.46,1.46,0,0,0,.93-1.23c.24-1,1.08-1.23,1.82-.5.52.51,1.3.8,1.62,1.71C482.69,159.11,482.2,159.38,482.09,160.44Zm14-6.67c-1.08.8-2.15-.74-3.21,0-.2.09-.31.06-.21-.19,1.57-1,3.24-.16,4.86-.23.38,0,.49.41.48.76s0,.87-.37.8c-.8-.15-.79.36-1,.84-.33.76-3.13,1.85-3.49,1.31s-1.27-1.26-1.21-2.25a2.91,2.91,0,0,1,1.68.57,1.69,1.69,0,0,0,2.65-1.2C496.37,154,496.24,153.69,496.14,153.76Zm-4.75.62c.39-.17.43.22.59.42-.25,0-.49.37-.74.06A.32.32,0,0,1,491.39,154.39Zm.62,3.54a1.51,1.51,0,0,1-.68-1.17C492,156.8,491.77,157.34,492,157.93Zm.7,3c-.83.3-.92-.51-1.33-.88.59,0,1.27-.28,1.62.47C493.1,160.76,492.89,160.9,492.71,161Zm.21-1.49c.55-.43,1-.72,1.35-1.07a1.21,1.21,0,0,1,1.69.05.79.79,0,0,1,0,1.26c-.41.38-.85,1.05-1.49.25C494.11,159.5,493.48,159.81,492.93,159.47Zm-9.26,29.18c.19.07.45,0,.54.27Zm9.54-9.7c.46,0,.68.2.7.65,0,.23-.14.59-.37.41s-1.05,0-1.09-.62C492.44,179,492.89,179,493.21,179Zm-1.36-2.68c0,.73.38,1.36-.32,1.78a.31.31,0,0,1-.47-.14C490.92,177.29,491.23,176.83,491.85,176.27Zm1.2,7.67c0-.83,0-1.54-1.15-1.33-.31.06-.89.53-1.1-.1-.14-.42-.22-1.17,0-1.35.38-.29.94-.74,1.51-.46s1.71.21,1.91,1S493.8,183.31,493.05,183.93Zm1.56,11.57c-.32,0-.33-.28-.33-.51s.15-.45.42-.42.34.27.34.51A.38.38,0,0,1,494.61,195.5Zm-.21-5.57c.07,0,.14-.12.22-.12a2.13,2.13,0,0,1,.42.08c-.13.08-.2.16-.27.15A1.71,1.71,0,0,1,494.4,189.93Zm.7-4.76c-.29,0-1,.08-1.1-.68s.75-.88,1.33-1,.88.37.94,1S495.9,185.24,495.1,185.17Zm2,11.43c.16-.28.23,0,.33,0ZM507.74,209a.93.93,0,0,1-1.21.37.38.38,0,0,1-.05-.61c.39-.36.28-.88.65-1.32C507.19,208,508.25,208.3,507.74,209Zm5.37,12.68a2.36,2.36,0,0,1,0-2.07A2.73,2.73,0,0,1,513.11,221.68Z"/><path class="cls-1" d="M473,196.16v-.25l.12,0Z"/><path class="cls-1" d="M480.77,186.36l-.11-.18C480.85,186.16,480.78,186.27,480.77,186.36Z"/><path class="cls-1" d="M495.16,179.73l-.1,0,0,.1.32.26h0Z"/><path class="cls-1" d="M490.9,155.5c0,.08-.05.16,0,.22s.11.09.17.14.07-.17,0-.24S491,155.54,490.9,155.5Z"/><path class="cls-1" d="M428.55,214.77c0-.16-.08-.26-.25-.22a.3.3,0,0,0-.14.17,1.82,1.82,0,0,0,.24.23Z"/><path class="cls-1" d="M493.92,161.16c0-.07-.06-.18-.12-.21s-.15,0-.23,0a1.73,1.73,0,0,0,.16.28S493.85,161.19,493.92,161.16Z"/><path class="cls-1" d="M494.4,161.57a1.51,1.51,0,0,0,.19.11s0-.06.08-.09a1.51,1.51,0,0,0-.19-.11S494.43,161.54,494.4,161.57Z"/><path class="cls-1" d="M474.28,175.1l.1-.06h-.19Z"/><polygon class="cls-1" points="490.02 182.52 490.03 182.44 489.95 182.47 490.02 182.52"/><path class="cls-1" d="M237.68,383c.07.89-.55,1.32-1.16,1.76C236.52,383.93,237.1,383.47,237.68,383Z"/><path class="cls-1" d="M238.55,382.17c-.13.47-.23,1-.89.88C237.88,382.67,237.89,382.09,238.55,382.17Z"/><path class="cls-1" d="M239.1,348.35c.92.14,1.77.37,2,1.44A4.27,4.27,0,0,1,239.1,348.35Z"/><path class="cls-1" d="M241.1,349.79c.2,0,.28.12.3.3C241.14,350.15,241.06,350,241.1,349.79Z"/><path class="cls-1" d="M327.19,346.49a56.38,56.38,0,0,0,3.65-6.25l.31-.47,1-1.66c1.35-2.25,2.73-4.47,4-6.75.73-1.28,1.33-2.63,2-3.94a1.87,1.87,0,0,0,.64-1.39,8,8,0,0,0,1.75-3.43c.3-.41.77-.77.44-1.38l-.05-.08q.38.07.3-.3h0c.25,0,.37-.1.45-.31a1.44,1.44,0,0,0,.49-.92l4.57-9.08a5.9,5.9,0,0,0,1.25-2.56c1.57-2.91,3.25-5.77,4.53-8.83l.49-1a6.78,6.78,0,0,0,1.28-2.86c1.27-1.76,2.56-3.51,3.82-5.29.32-.45.75-.88.67-1.52,1.29-.61,1.72-1.93,2.5-3l2.28-3.26c.44-.63.45-1.14-.48-1.45.71-.12,1.4,0,1.84-.62a34.55,34.55,0,0,0,3.58-5.25c2.48-3.34,5-6.65,7.2-10.2.29,0,.59-.16.83.12a18.09,18.09,0,0,0-2.34,3.32,3.25,3.25,0,0,0-1.24,2.13c-1.57,2.19-3.2,4.33-4.69,6.57-1,1.52-2.3,2.87-3,4.62-2.24,2-3.4,4.85-5.26,7.16-.41.93-1.94,1.42-1.12,2.85,0,0-.1.27-.19.29-1.95.46-2.39,2.24-3.26,3.66a30.8,30.8,0,0,0-3.05,6.12,52.28,52.28,0,0,0-4.69,9.58c-.69.31-.77,1-1.07,1.61-.22.34-.6.62-.42,1.11v0c-.17-.07-.2,0-.23.16a15.92,15.92,0,0,0-1.62,3.3l-.17.52a2.59,2.59,0,0,0-.88,1.57l0,0c-.56.34-.64.95-.83,1.5l-.27.34c-1.41,2.65-2.81,5.3-4,8.06-3.83,6.19-7.49,12.48-11,18.84l-.73.09C326.54,347.68,327.16,347.21,327.19,346.49Z"/><path class="cls-1" d="M313.37,398.52c-.45.91,1.2.79.79,1.32-.66.86-.09,1.12.38,1.58a.52.52,0,0,1,.06.76c-.3.28-.49,0-.69-.23-1.06-1-2.62-1.32-3.32-2.77-.17-.35-.67-.28-1-.14-1.37-1.48-2.22-3.39-3.91-4.59l-.67-.81a.55.55,0,0,0-.52-.51l0-.06,0-.93,3.84-.68a5.08,5.08,0,0,0,2.34-.49c1.07-.55,1.68-.23,2,.91.15.59.4,1.16.6,1.74-.26.06-.59.26-.78.17-1.76-.76-.89.4-.77,1-.44.16-.87.35-1.32.49-1,.31-1.37,1.18-.54,1.81s1.72,1.51,3,1.37l.59,0Z"/><path class="cls-1" d="M318.24,411.42l-1.29-2.56c1.49-.36,2.31.08,3.5,2a4,4,0,0,0,2.26,2c1,.3,1.06,1.41,1.2,2.29a11,11,0,0,0,.41,2.39c-.26.21-.62.31-.71.69-.38.13-.65-.59-1.08-.15-.07-.76-.74-.4-1.11-.6a11,11,0,0,0-2-3.72A6.7,6.7,0,0,0,318.24,411.42Z"/><path class="cls-1" d="M318.16,107.66s-.06.07-.09.07-.05-.05-.08-.08.06-.07.09-.07S318.14,107.63,318.16,107.66Z"/><path class="cls-1" d="M173.17,81.72l-2.23-1c-1.12-.59-1.35-1.76-1.8-2.79.18-.16.39-.14.46.06A4.67,4.67,0,0,0,172.8,81C173.07,81.08,173.46,81.27,173.17,81.72Z"/><path class="cls-1" d="M485.55,316.06c-.42,1.35-1.55,2.35-1.89,3.75a.66.66,0,0,0-.29.72v0c-1.51,1.65-2.27,3.76-3.5,5.58-.21.31-.4.64-.59,1l-.28-.28c1.2-2.4,2.83-4.57,3.84-7.07h0c.31-.08.31-.37.43-.59l.65-1.18a1.24,1.24,0,0,0,.07-.26v0a2.06,2.06,0,0,0,.87-1.45h0l.45-.39Z"/><path class="cls-1" d="M475.06,334.55,474,336l-.24-.2,1.71-3.21.31-.55,3.26-5.32.28.28-2.48,4.52-.59,1h0l-.43.58a.31.31,0,0,0-.14.42,1.82,1.82,0,0,0-.59,1Z"/><path class="cls-1" d="M175.69,51.87c-.19-.93-.84-.24-1.26-.35l-.33-.61c-.56-1.8,1.2-.73,1.62-1.31Z"/><path class="cls-1" d="M521.49,132.13a.59.59,0,0,1-.26.05c-.19-.71.61-1.07.6-1.72h0a.73.73,0,0,0,.29-.73c.4-.06.46-.4.57-.7l.92-1.71.19-.31c1-2,2.33-3.79,2.73-6.05a2,2,0,0,1,1.29-1.41c-1.09,1.78-1.43,3.87-2.29,5.74a7,7,0,0,0-1.74,3.15v0a3.8,3.8,0,0,0-.9,1.44l-1.12,2Z"/><path class="cls-1" d="M584,110.33l0,0c.24-.2.35-.63.81-.48l-.05.52-.37.5-.31.43-.72.53,0-.83h0l.3-.3h0Z"/><path class="cls-1" d="M582.25,113.8H582a2.59,2.59,0,0,1,1.42-2v.74C582.8,112.75,582.66,113.4,582.25,113.8Z"/><path class="cls-1" d="M581.43,114.67v-.56c.15-.18.27-.38.56-.31A.93.93,0,0,1,581.43,114.67Z"/><path class="cls-1" d="M575.29,123l1.16-1.54.31.28-.81,1.36a10.12,10.12,0,0,1-2.47,2.55l-.33-.27A8.1,8.1,0,0,0,575.29,123Z"/><path class="cls-1" d="M571.76,126.5l.54-.6.43-.16.31.32-1.25,1.05-.23-.32Z"/><path class="cls-1" d="M572.72,125.74l.43-.34.33.27-.45.4Z"/><path class="cls-1" d="M576.88,120.67l0-.1.49-.15v.71l-.64.63-.31-.28Z"/><path class="cls-1" d="M490.16,308l-2.32,4.07-.28-.26.43-1h0l.3-.58h0c.32-.09.25-.37.29-.59v0c.39-.15.48-.53.64-.86l.68-1Z"/><path class="cls-1" d="M486.69,314a7.31,7.31,0,0,1-1.15,2l-.27-.2c.17-.57.68-1,.7-1.62h0l.44-.41Z"/><path class="cls-1" d="M491.2,306.26a6.16,6.16,0,0,1-1,1.76l-.29-.19,1.05-1.8Z"/><path class="cls-1" d="M487.84,312.09l-1,1.62-.28-.22.52-1.26h0l.43-.4Z"/><path class="cls-1" d="M486.89,313.71l-.19.33-.27-.22.19-.34Z"/><path class="cls-1" d="M580,117.58c-.32-.06-.46.45-.83.27.14-.66.31-1.29,1.11-1.45A1.24,1.24,0,0,1,580,117.58Z"/><path class="cls-1" d="M578.86,118.43l0,.84h0a.38.38,0,0,0-.29.43l-.86.42A1.7,1.7,0,0,1,578.86,118.43Z"/><path class="cls-1" d="M580.85,115.54c0-.43,0-.79.57-.86l-.09.6-.14.14Z"/><path class="cls-1" d="M580.28,116.39c-.15-.31,0-.48.29-.57A.59.59,0,0,1,580.28,116.39Z"/><path class="cls-1" d="M577.42,120.39c0-.19,0-.3.26-.26A.22.22,0,0,1,577.42,120.39Z"/><path class="cls-1" d="M580.57,115.82c0-.19.08-.31.29-.29Z"/><path class="cls-1" d="M587.47,106.07c-.1-.47,0-.78.56-.85a.74.74,0,0,1-.15.7Z"/><path class="cls-1" d="M586.32,107.79c-.25-.57,0-.8.56-.84l0,.53Z"/><path class="cls-1" d="M586.89,106.93c-.07-.45,0-.82.56-.84l0,.53Z"/><path class="cls-1" d="M584.88,109.8c-.07-.45,0-.83.56-.84l-.05.51Z"/><path class="cls-1" d="M585.46,108.94c-.09-.66.1-1.1.84-1.13l-.06.51-.37.48Z"/><path class="cls-1" d="M313.41,398l.22,0-.26.55h0Z"/><path class="cls-1" d="M607.43,234.05l.31.27.37.49-.22.22c-1.46-.9-2.53-2.32-4.07-3.11h0a2,2,0,0,0-1.44-1.15v0l-.31-.31,0,0-.3-.31h0l-.3-.3h0l-.3-.3h0l-.22-.35.32-.33.36.23,5.16,4.3.3.26Z"/><path class="cls-1" d="M600.85,228.29l.23.32.26.35-.32.33-.65-.37L599,227.57l.29-.32.38.22.3.26a.62.62,0,0,0,.66.19Z"/><path class="cls-1" d="M597.89,226.09l1.41,1.17-.29.32-1.42-1.17Z"/><path class="cls-1" d="M610.07,236.58c-.34.34-.54-.06-.8-.15l-1.39-1.4.22-.22,1.34.95C609.6,236.08,610.11,236.12,610.07,236.58Z"/><path class="cls-1" d="M611.81,238.22a2.42,2.42,0,0,1-1.75-1.64l.52.07.28.27.3.27C611.43,237.5,611.92,237.67,611.81,238.22Z"/><path class="cls-1" d="M483.93,144.22c.31-1.12,1.15-1.07,1.92-.71.46.21,1,.58,1.22.14s-.06-1.09-.16-1.64-.51-.42-.89-.31a.42.42,0,0,1-.56-.24c1-.62.92-1.64.84-2.66l.41-.76,1-.14c0,.6.2,1,.87.51l.55,0c.52,0,1.17.19,1.19-.7l.06,0c.46,1.69,2.11,1.36,3.25,1.9.1,0,.37-.11.46-.24s0-.38-.21-.45c-.4-.15-.81-.26-1.22-.38.13-.5-.36-1.26.31-1.49a1.84,1.84,0,0,1,1.78.57c.34.31.69.6,1,.91-.47.56-.89,1.13-.08,1.75l0,0c.14.65.44.71.88.24l.27.3c-.31.54-.8.55-1.35.52a3.37,3.37,0,0,0-3.82,2.6c-1.7.24-1.42,1.48-1.32,2.62-.9.08-1.93.37-2.63-.18a2.31,2.31,0,0,0-2.63-.34C485.12,145.12,484.4,144.75,483.93,144.22Zm6.18-4.61a1.12,1.12,0,0,0-.92-.4.3.3,0,0,0-.34.34c.11.49.58.36.91.44S490.11,139.93,490.11,139.61Zm1.59,2a2.44,2.44,0,0,1-1-1.33C490.54,141.11,490.51,141.65,491.7,141.61Zm-.43.9c0-.28-.16-.37-.28-.3a.69.69,0,0,0-.34.37.22.22,0,0,0,.33.25C491.11,142.76,491.2,142.58,491.26,142.51Zm1.06-2.48c-.07-.11-.12-.24-.14-.23a2.23,2.23,0,0,0-.35.15c0,.06.09.18.13.18A1.77,1.77,0,0,0,492.32,140Z"/><path class="cls-1" d="M487.28,139.06v.12l.18-.06s0-.08-.08-.09S487.31,139.05,487.28,139.06Z"/><path class="cls-1" d="M486.15,138.27l.08.45-.25-.5A.5.5,0,0,0,486.15,138.27Z"/><path class="cls-1" d="M533.63,114.72c1.2.84.65,2.08.53,3.09-.1.84-1.09.54-1.69.51a6.9,6.9,0,0,0-4.38.93c.38-.64.18-1-.55-1l0-.09-.06-1.81c-.07-1.28.63-1.59,1.77-1.5,1.61.14,3.26.26,4.15-1.56l.21.23,0,.53h0c-.26.11-.52.25-.38.58S533.46,114.78,533.63,114.72Z"/><path class="cls-1" d="M533.38,113.33l.86-1.13.21.21c0,.4-.53.64-.35,1.1h0l-.52.06Z"/><path class="cls-1" d="M535.56,110.94l-.28.87-.38.2-.24-.24C534.92,111.45,534.92,110.86,535.56,110.94Z"/><path class="cls-1" d="M534.24,112.2l.42-.43.24.24-.45.4Z"/><path class="cls-1" d="M528.1,119.25c0,.2-.11.29-.3.3Z"/><path class="cls-1" d="M463.88,162.9c-.64-.4-.5-.73.14-.87a4.92,4.92,0,0,1,1.21,0q0,.63,0,1.27l-.67,0A.56.56,0,0,0,463.88,162.9Z"/><path class="cls-1" d="M464.48,168.15a2.2,2.2,0,0,1-.05,1.28c-.81,0-.93-.82-1.45-1.15L463,168Z"/><path class="cls-1" d="M534.27,148c-.85.42-1.72,1.22-2.56,1.2-2.82-.09-4.9,1.36-7,2.84a10.19,10.19,0,0,1-1.49.72c-.43.13-.37-.18-.3-.44a4.71,4.71,0,0,1-1,.3,2.33,2.33,0,0,0,.14.22c.4.24.22.46-.06.6-1.35.71-2.62,1.63-4.22,1.74l-.53.25a27.51,27.51,0,0,1-4.61,2.6l-.47.35.17.21c1,0,1.67-1,2.69-.89a12.24,12.24,0,0,1,3.48-1.87l1.15-.58.54-.28a20.85,20.85,0,0,1,5.56-2.45.93.93,0,0,1-.06-.18s0-.07.06-.11a5.28,5.28,0,0,0,1-.76,4,4,0,0,1,4-1.47,3.52,3.52,0,0,0,1.63-.38l2-1.1a.69.69,0,0,0,.09-.21Z"/><path class="cls-1" d="M518.65,135l-.11.53-.79.85c-.29.21-.53.58-1,.36C517.43,136.22,517.61,135.16,518.65,135Z"/><path class="cls-1" d="M536.65,145.59l.11-.49h0l.55-.05c.2.41-.19.55-.37.79Z"/><path class="cls-1" d="M536.12,146.2l.54-.61.25.24-.64.54Z"/><path class="cls-1" d="M535,147.34l.59-.57.05,0-.41.72Z"/><path class="cls-1" d="M534.47,147.79l.49-.45.22.2-.44.44Z"/><path class="cls-1" d="M521.2,132.42l-.27,0c0-.25,0-.37.31-.3A.44.44,0,0,1,521.2,132.42Z"/><path class="cls-1" d="M534.27,148l.21-.21.27.19-.28.29Z"/><path class="cls-1" d="M535.55,146.78l.28-.29.11.12-.34.22Z"/><path class="cls-1" d="M535.83,146.49l.28-.29.15.18-.32.23Z"/><path class="cls-1" d="M538.41,143.92l.23-.48,0,0a1.68,1.68,0,0,0,1.32-.91h.82l0,.56h0C539.86,143.1,539.35,144.07,538.41,143.92Z"/><path class="cls-1" d="M543,141.07a3.07,3.07,0,0,1-2.3,1.43A4.47,4.47,0,0,1,543,141.07Z"/><path class="cls-1" d="M579.15,117.86c.16.31,0,.47-.28.56A.39.39,0,0,1,579.15,117.86Z"/><path class="cls-1" d="M322.63,418.21l.3.29-.38.34-.21-.25Z"/><path class="cls-1" d="M321.3,420.7l-.31-.27.38-.34.21.23Z"/><path class="cls-1" d="M322.93,420.4l-.3.29-.33-.36.24-.24Z"/><path class="cls-1" d="M580.28,215a4,4,0,0,1,2.29,1.43A2.68,2.68,0,0,1,580.28,215Z"/><path class="cls-1" d="M573.08,210.75c.85-.26,1.27.36,1.75.85-.66.31-1-.54-1.67-.4l0,.08Z"/><path class="cls-1" d="M584.3,217.63a1.53,1.53,0,0,1,1.42.85A1.29,1.29,0,0,1,584.3,217.63Z"/><path class="cls-1" d="M575.41,212.18a1.13,1.13,0,0,1,1.43.86A1.68,1.68,0,0,1,575.41,212.18Z"/><path class="cls-1" d="M586.48,218.58l.1.47c-.44.05-.84,0-.84-.56A.75.75,0,0,1,586.48,218.58Z"/><path class="cls-1" d="M583.14,217a.94.94,0,0,1,1.15.58A1.07,1.07,0,0,1,583.14,217Z"/><path class="cls-1" d="M576.84,213c.49-.12.89-.1.85.57A.82.82,0,0,1,576.84,213Z"/><path class="cls-1" d="M574.83,211.6c.37,0,.66.09.57.57C575.06,212.13,574.73,212.09,574.83,211.6Z"/><path class="cls-1" d="M582.57,216.47c.31.08.58.2.58.58C582.84,217,582.5,216.94,582.57,216.47Z"/><path class="cls-1" d="M560.52,203.82c1.4-.09,2.41,1,3.7,1.21l.31.51A9,9,0,0,1,560.52,203.82Z"/><path class="cls-1" d="M570,208.73l-.54,0h0l-1.78-1.35.17-.25C568.55,207.59,569.7,207.57,570,208.73Z"/><path class="cls-1" d="M570.82,209.31a.78.78,0,0,1-.86-.57C570.47,208.6,570.82,208.68,570.82,209.31Z"/><path class="cls-1" d="M567,206.56l.79.55-.17.25-.79-.4a1.73,1.73,0,0,0-.05-.2Z"/><path class="cls-1" d="M571.27,209.59l-.45-.29A.44.44,0,0,1,571.27,209.59Z"/><path class="cls-1" d="M502.88,138.77,503,138l.49-.69A3.07,3.07,0,0,1,502.88,138.77Z"/><path class="cls-1" d="M484.81,147.09l-.06.44-2,1-.53.34a1.55,1.55,0,0,1-1.35-.22c.13-.69.87-1.33.19-2.09.28-.37.52-.18.82,0A3.71,3.71,0,0,0,484.81,147.09Z"/><path class="cls-1" d="M514.34,139.9a2.91,2.91,0,0,1-2.3,2l1.47-1.71,0,0C513.78,140.16,513.91,139.65,514.34,139.9Z"/><path class="cls-1" d="M520.94,132.44c-.26.71-.58,1.34-1.45,1.44C519.81,133.22,520.12,132.57,520.94,132.44Z"/><path class="cls-1" d="M516.35,137.6c-.21.74-.53,1.39-1.44,1.44A1.75,1.75,0,0,1,516.35,137.6Z"/><path class="cls-1" d="M519.49,133.88c.18.33,0,.47-.29.57C518.94,134.08,519.26,134,519.49,133.88Z"/><path class="cls-1" d="M516.64,136.89a.53.53,0,0,1-.3.73C516.21,137.28,516.47,137.1,516.64,136.89Z"/><path class="cls-1" d="M514.91,139c.22.35,0,.48-.29.57C514.38,139.26,514.68,139.17,514.91,139Z"/><path class="cls-1" d="M514.62,139.61a.26.26,0,0,1-.28.28Q514.22,139.5,514.62,139.61Z"/><path class="cls-1" d="M518.92,134.74l-.29.3C518.56,134.78,518.64,134.66,518.92,134.74Z"/><path class="cls-1" d="M519.21,134.45a.26.26,0,0,1-.28.28C518.84,134.46,518.93,134.36,519.21,134.45Z"/><path class="cls-1" d="M414.34,160.55l-.07-.72c1.07.59,1.4,1.76,2.11,2.64l-.29.29-.64-.79-.55-.67a.29.29,0,0,0-.07-.19l-.25-.29h0l-.3-.3Z"/><path class="cls-1" d="M417.45,164.55c.52-.12.52.45.83.61l.92,1.38-.23.22-.37-.21h0Z"/><path class="cls-1" d="M422.85,170.55c-.43-.31-1-.42-1.12-1.1C422.36,169.56,422.85,169.81,422.85,170.55Z"/><path class="cls-1" d="M420,168l-.84-.62v0l-.21-.66.23-.22C419.6,167,420.08,167.34,420,168Z"/><path class="cls-1" d="M416.67,162.6c.19.35.4.7.19,1.12-.43-.18-.52-.64-.77-1l.29-.29Z"/><path class="cls-1" d="M420.88,168.88c-.36-.22-.76-.41-.87-.87C420.56,168,420.91,168.27,420.88,168.88Z"/><path class="cls-1" d="M421.73,169.45c-.45,0-.66-.26-.86-.58C421.36,168.77,421.59,169,421.73,169.45Z"/><path class="cls-1" d="M455.28,165.85c.26.09.67.15.52.51-.26.66-1,.48-1.49.62s-.5-.17-.54-.48a1.66,1.66,0,0,1,.23-1.23l.47.44.24.22Z"/><path class="cls-1" d="M446.48,171c-.07,0-.17-.08-.19-.13a.25.25,0,0,1,.08-.22c.15-.09.25,0,.24.15S446.53,170.92,446.48,171Z"/><path class="cls-1" d="M403.18,230.05c-2,.49-2.69,2.41-4,3.6a4.73,4.73,0,0,0-1.56,2.18c-.53.08-.76.52-1.09.86-1.57,1.65-2.75,3.65-4.65,5l-3.39,2.56a4.67,4.67,0,0,0-2.9,4.63c0,.57-.07,1.14-.11,1.71a12,12,0,0,1-2.34,6.38,3.4,3.4,0,0,0-.36.76c-.38.43-.56,1-1.19,1.25l-.2-.14c.75-1.36,1.55-2.71,2.25-4.09a9.58,9.58,0,0,0,1-5.59q0-.27,0-.55a11.18,11.18,0,0,0,.8-3.09c.8-1,2.13-1.27,2.84-2.34a10.6,10.6,0,0,0,1.92-1.14c1.25-1.14,3-1.81,3.52-3.65l0,0a1.06,1.06,0,0,0,1-.94l0,0a19.42,19.42,0,0,0,4-4.8l.36-.31c.55-.66,1.42-1.07,1.64-2l.7-.47c.63-.19,1.11-.75,1.83-.73A.82.82,0,0,1,403.18,230.05Z"/><path class="cls-1" d="M461.31,180.68l.21,0c.12.78,1.19.35,1.34,1,.25,1.06,1,1,1.85,1a1.22,1.22,0,0,0,1.25.94c1.68,0,1.68,0,1.18,1.58s-2.15,1.18-3.3,1.61a5.65,5.65,0,0,1-1.67.11l.6-1.16.29-.24-.15-.14-.22.31-.8.33c-.14-1.11.56-2.46-.86-3.26-.45.44-.07.74.07,1.05.23.54-.13.79-.49,1s-.55.28-.77,0a.76.76,0,0,1,.07-1.13,2,2,0,0,0,.56-1.68l.32-1.1Z"/><path class="cls-1" d="M432.37,183.22c.6,0,1.21.27,1.81-.11a2.56,2.56,0,0,1,3.59.63c-1.12.38-2.22.81-3.36,1.12S432.5,184.48,432.37,183.22Z"/><path class="cls-1" d="M486.27,196c.76-.07.83.75,1.29,1.09,1.26.94,2-.28,3-.37.31,1.57,1.86,2.06,2.81,3,.69.71,1.06,1.18.55,2.16,1.08-.42.39-2,1.76-2v0a1.16,1.16,0,0,0,.29.88h0c.09.31.19.63.27.94.15.61-.2.48-.54.35s-.86.16-.74.41c.69,1.46-.6,1.86-1.27,2.6v-.29h0s-.11.07-.11.08a1.49,1.49,0,0,0,.11.2c-.17,1.11-1,1.19-1.9,1.28-.41,0-.87-.24-1.23.1-.94.89-1.74.68-2.48-.25-.07-.59-.53-.86-1-1.16a2.12,2.12,0,0,0-.95-1c-1.88-.87-2.63-2.57-3.22-4.4-.13-.39.24-.59.25-.91a8.68,8.68,0,0,0,1.87-2.3l.5-.28Zm3.34,7c.25-.37.88-.59.53-1.18-.08-.13-.41-.26-.47-.21C489.22,201.92,489.62,202.42,489.61,202.92Zm-2.67.17c.42-.47.93-.75.66-1.36,0-.08-.39-.13-.5-.05C486.57,202.05,486.75,202.52,486.95,203.1Zm4-.18a2.41,2.41,0,0,0,.47.36c.25.09.64.25.52-.25C491.83,202.8,491.42,202.77,490.91,202.92Z"/><path class="cls-1" d="M482.61,207.63l.47-.13a1.75,1.75,0,0,1,2,1.06c.36-.68,1-1,1-1.78l.8-.19a2,2,0,0,1,0,.7c-.53,1.21,0,1.8,1.14,2.1a1.52,1.52,0,0,1,1.23,1.37,2.56,2.56,0,0,1-1.45.53c-.52,0-1.13,0-1.16.73s.46,1.08,1.18,1.09a6.2,6.2,0,0,1,.63.09,2,2,0,0,0-.77,1.71c0,.48-.26,1-.73.32-.61-.91-2.16-1-2.12-2.43,0-.1-.23-.29-.24-.29-1.44,1.07-1-.49-1.28-1a1.38,1.38,0,0,0-1.61-.85l-2.25.37c-.27-.61-.21-1.44-1.22-1.54s-2.06-.35-3.09-.53c-.5-.13-.89.27-1.52.34a5.31,5.31,0,0,1,1.81-2.47c1.64-1,2.49-2.84,3.95-4.09.73-.62,0-1.3-.56-1.75-.4-.32-.95-.46-1-1.1-.1-.8-.52-1.82,1-1.14.34.15.83.23,1.07-.13.88-1.35,1.05-.34,1.38.36.16.34.5.6.63.94a1.34,1.34,0,0,1-.52,1.89,10.51,10.51,0,0,0-3.74,4.82,1.22,1.22,0,0,0-1.35.59c-.21.42-1,.81-.49,1.28s1.25.1,1.77-.39c.17-.16-.12-.53.22-.65.5.6.4,1.62,1.46,1.64.81,0,1.61.13,2.42.15C483.4,209.35,483.44,209.28,482.61,207.63Z"/><path class="cls-1" d="M480.41,219.9l-.18.22c-.64,0-1.41.36-1.77-.45-.28-.64.33-1,.69-1.46s.65-.73,1.22-.46A1,1,0,0,1,481,219l-.19.25Z"/><path class="cls-1" d="M479.76,195.78c-.32.51-.68,1.08-1,1.64,0,0-.18,0-.27,0-.28-.06-.67-.16-.49-.51.37-.73.38-1.76,1.24-2.1C479.59,194.66,479.59,195.34,479.76,195.78Z"/><path class="cls-1" d="M483.66,189.77l.45.2c.31.3.94.38.8,1-.07.3-.44.31-.71.28-.89-.1-.88-.81-1-1.46Z"/><path class="cls-1" d="M478.52,186.08l0-.12,0,.1Z"/><path class="cls-1" d="M516.21,172.11a1.13,1.13,0,0,1,1.89.21c.15.32,0,.46-.27.49s-.67.21-.5.63.57.32.88.27a2.72,2.72,0,0,1,1.79.1c-.2.81-.88.86-1.52,1-.49.09-1.06,0-1.28.62a1.71,1.71,0,0,1-1.19-.27A14.7,14.7,0,0,0,516.21,172.11Z"/><path class="cls-1" d="M553.07,200.68a2.06,2.06,0,0,1,2,.85A3,3,0,0,1,553.07,200.68Z"/><path class="cls-1" d="M552.16,199.88c.26.31.79.31.9.79a3,3,0,0,1-2-.87Z"/><path class="cls-1" d="M556.51,202.1a2.14,2.14,0,0,1,2,.86A2.75,2.75,0,0,1,556.51,202.1Z"/><path class="cls-1" d="M559.08,203.25a1.13,1.13,0,0,1,1.44.58A1.6,1.6,0,0,1,559.08,203.25Z"/><path class="cls-1" d="M555.07,201.54l1.12,0c.08.2.43.23.33.53A1.52,1.52,0,0,1,555.07,201.54Z"/><path class="cls-1" d="M558.51,203c.31-.13.51-.05.58.29A.62.62,0,0,1,558.51,203Z"/><path class="cls-1" d="M467.53,185.19l.39.89Z"/><path class="cls-1" d="M511.78,164.32c1.28.6,3.05.64,3.07,2.68l-.51.43-.35-.06c-.67-.12-1,.24-1.16.82-.42,0-.9-.68-1.24,0a.86.86,0,0,0,.5,1.28c.51.17.61.49.64,1s0,1,.63,1.15l.61.26c-.47.92-1.7,1.91.25,2.6l.63.54a3.32,3.32,0,0,0-.8,2.64,13.13,13.13,0,0,1-.83,3.29c-.2.66-.45,1.22-1.27.62,0-.43.8-1.11-.45-1.15-.39,0-1.63-.17-.58-1.23.36-.36,0-.63-1.45-.83l.39-.44c.46-.51,1.74-.56,1.31-1.51-.51-1.14-.83-2.61-2.42-2.89a1.28,1.28,0,0,0-1.32.27c-.28.31-.6.7-1.09.39s-.33-.76-.32-1.18a14.69,14.69,0,0,0-.25-4.5c-.16-.55-.39-1.06-.59-1.59.2-.07.45-.09.44-.39,0,0-.06-.09-.08-.09-.29,0-.26.3-.35.49a2.24,2.24,0,0,1-.86-1.82,1.65,1.65,0,0,0-.61-1.34,1.21,1.21,0,0,1,1.65,0c.43.33.95.5,1-.42a1.87,1.87,0,0,1,2.54-1.43c.27.24.44.64.91.55l.54,0,.31.38,0,.58c-1.36.53-1.56,1.5-1.06,2.75.11.28.23.58.57.52s.46-.42.34-.78-.44-.42-.17-.85c.48.29,1,.39,1.18-.34l.3-.43Z"/><path class="cls-1" d="M501.32,177.73a.86.86,0,0,0,.28-.81c.12-.58.64-1.22,1-1.08.61.23.39,1,.47,1.64s.49,1-.39,1.1C502,178.67,501.28,178.8,501.32,177.73Z"/><path class="cls-1" d="M510,180.93c-.12.43-.12,1-.82,1.06a.73.73,0,0,1-.87-.71c0-.69.46-1,1-1.1S510,180.45,510,180.93Z"/><path class="cls-1" d="M505,174.27a1.26,1.26,0,0,1-1,.7c-.46.09-.5-.36-.48-.68s.17-.93.68-.92S504.79,173.9,505,174.27Z"/><path class="cls-1" d="M500.57,174.88l.27-.55c.47,0,.41-.39.53-.67a.59.59,0,0,1,.67-.39.72.72,0,0,1,.58.54c.12.34-.15.47-.36.67A1.87,1.87,0,0,1,500.57,174.88Z"/><path class="cls-1" d="M501.46,180.9c.38-.08.58.25.85.39l.34.5a.72.72,0,0,1-.07.25C501.84,182,501.58,181.53,501.46,180.9Z"/><path class="cls-1" d="M499.72,175.6c-.13-.74.36-.74.87-.73C500.5,175.36,500.15,175.53,499.72,175.6Z"/><path class="cls-1" d="M505.58,175.2l-.23,0a.63.63,0,0,1,0-.12l.23,0A.68.68,0,0,1,505.58,175.2Z"/><polygon class="cls-1" points="501.31 175.39 501.35 175.48 501.26 175.47 501.31 175.39"/><path class="cls-1" d="M505.23,176l.24.07h0c-.08.22-.18.34-.36.08Z"/><polygon class="cls-1" points="505.46 176.04 505.5 175.99 505.46 176.03 505.46 176.04"/><path class="cls-1" d="M505.09,176.11c-.08-.17-.06-.24.13-.14Z"/><path class="cls-1" d="M509.23,143.1l.88-.59.51-.16a1.09,1.09,0,0,1,.86-.16,5.12,5.12,0,0,1-2.85,1.75C508.62,143.51,509.08,143.42,509.23,143.1Z"/><path class="cls-1" d="M505.75,147.07h-.57c-.06-1,.78-1.3,1.28-1.87l.21.23L506,146.8l0,0-.3.3Z"/><path class="cls-1" d="M508.62,143.94l-.57.6-.21.07-.32-.27A1.24,1.24,0,0,1,508.62,143.94Z"/><path class="cls-1" d="M506.47,145.2l.63-.6.2.32-.19.26a.17.17,0,0,0-.13.1l-.3.15Z"/><path class="cls-1" d="M507.1,144.6l.43-.26.32.27-.55.31Z"/><path class="cls-1" d="M504.87,147.38a.22.22,0,0,1-.26.26C504.59,147.44,504.67,147.35,504.87,147.38Z"/><path class="cls-1" d="M505.16,147.09c0,.18-.08.27-.26.26C504.87,147.15,504.95,147.05,505.16,147.09Z"/><path class="cls-1" d="M456.9,175.6a.65.65,0,0,1-.77.53c-.41,0-.93,0-1-.55s.35-.49.69-.43S456.68,175.2,456.9,175.6Z"/><path class="cls-1" d="M487.09,149.39c1-.27,1.89.38,2.86.24a1.51,1.51,0,0,1-.27,1.3h-2.56a1.53,1.53,0,0,1-.34-1.27l.34-.29Z"/><path class="cls-1" d="M506.88,147.08a1.49,1.49,0,0,0-.11,1.51c-.17.69.16,1.86-1.32,1.26-.21-.09-.71.38-.9.79s-.36,1-1,.54-.22-.82,0-1.23.34-.56.51-.84l.3-.28.25-.32c.85-.11.86-.89,1.15-1.44h0l.3-.3,0,0A.82.82,0,0,1,506.88,147.08Z"/><path class="cls-1" d="M505.18,159.7l.29-.28c1.18-.16,1.13.65,1.14,1.43h0a6.8,6.8,0,0,0-2.71.9l.81-1.29,0-.08A.73.73,0,0,0,505.18,159.7Z"/><path class="cls-1" d="M508,160.55a9,9,0,0,1-5.15,2.58c1-1.14,2.64-1.29,3.73-2.3h0Z"/><path class="cls-1" d="M509.49,159.43l1.78-1,.92-.1.17.21c-.49.58-1.38.66-1.73,1.41h0a.52.52,0,0,0-.56.28h0c-.72-.17-1.31.52-2,.31Z"/><path class="cls-1" d="M499.45,159.39c0-1,.75-1.29,1.41-1.7A2,2,0,0,1,499.45,159.39Z"/><path class="cls-1" d="M500.88,157.68a.39.39,0,0,1,.28-.56A.43.43,0,0,1,500.88,157.68Z"/><path class="cls-1" d="M522.2,188.77a2.81,2.81,0,0,1-1,1.48c-.43-.56-1.45-.54-1.46-1.55,0-.86.55-1,1.18-1.11S522.15,187.8,522.2,188.77Z"/><path class="cls-1" d="M503,195.45a2,2,0,0,0-1.82-1c-.64-1.63-.46-2.62.56-3.16.08.22.19.5.44.48,1.55-.12,1.82.89,1.9,2.09C503.61,194.29,504.19,195.45,503,195.45Z"/><path class="cls-1" d="M509,202.65l1.94-.24-.49-1.08-.36-.26c.31-.57.31-1.4,1.3-1.38a.49.49,0,0,0,.4-.72h0a1.44,1.44,0,0,0,.24-1.15,1.1,1.1,0,0,0,.05-.88h0c.8-.29,1.34-.76,1.17-1.72v0c1.4-.47,2.08-2.11,3.66-2.29,0,.9,0,1.81,0,2.75-.53-.06-1.06-.46-1.36.06s.41.6.65.89a1.92,1.92,0,0,1-.46,2.8c-.78.34-1,.76-.47,1.4.27.36.28,1,0,.9-1.15-.38-1.72.67-2.57.82a3,3,0,0,0-1.91.73,2.09,2.09,0,0,1-2.73.42C508.1,203.2,509,203.26,509,202.65Z"/><path class="cls-1" d="M465,182c-1.1.06-1.05-1.06-1.61-1.56,1.41-.93,1.89.48,2.7,1.07A1,1,0,0,0,465,182Z"/><path class="cls-1" d="M509.48,212a11.22,11.22,0,0,1,0-3.51c.07-.4.18-.74.7-.7s.48.4.48.73a8.72,8.72,0,0,1-.34,3.48Z"/><path class="cls-1" d="M488,155c1.52.1,1.13,1.2,1.12,2.11-.57.5-1.24,1-1.74.06S486.66,155.37,488,155Z"/><path class="cls-1" d="M482.53,171.45l-.58.29Z"/><path class="cls-1" d="M481.67,172l-.3.3Z"/><path class="cls-1" d="M482,171.74l-.29.29Z"/><path class="cls-1" d="M490,149.64c.1-.29.32-.28.56-.23Z"/><path class="cls-1" d="M498.65,206.26c-.42,0-.83.11-1.25.12s-.93-.47-.63-.78c.76-.83.37-2,1-2.82l.34,0c1.29.2,2.25.72,2.19,2.24C499.61,205.21,499.48,206.21,498.65,206.26Z"/><path class="cls-1" d="M487.89,168.11l.38.48-.49-.47Z"/><path class="cls-1" d="M501.15,167v-.43c.12,0,.33.07.34.13C501.53,166.95,501.34,167,501.15,167Z"/><path class="cls-1" d="M481.1,160c-.2,0-.38,0-.42,0a.49.49,0,0,1,0-.35s.2-.07.23,0A1.88,1.88,0,0,1,481.1,160Z"/><path class="cls-1" d="M498.12,175.95c0,.13.09.32,0,.36s-.22,0-.28-.15Z"/><path class="cls-1" d="M502.9,182.34a.26.26,0,0,1,.28.28C503,182.65,502.86,182.56,502.9,182.34Z"/><path class="cls-1" d="M502.6,182.07a.48.48,0,0,1,.27,0,.35.35,0,0,1,0,.28C502.67,182.38,502.57,182.29,502.6,182.07Z"/><path class="cls-1" d="M513.7,163.37l-1.36.28a1.12,1.12,0,0,0-.83-.23l.2-1c.5.14.81,0,.89-.55,0-.19,0-.44-.22-.43-.57,0-.55.51-.62.9l-.56-.21-.5-.21c.15-.55-.08-.77-.62-.71l-.59-.09c0-.42.4-.58.59-.87h0a.56.56,0,0,0,.56-.28h0c.8.31,1.85.17,2.44.56C513.91,161.1,515.27,162,513.7,163.37Z"/><path class="cls-1" d="M511.47,142.2c.08-.32.26-.44.58-.29C512,142.2,511.73,142.24,511.47,142.2Z"/><path class="cls-1" d="M537.57,144.77q.06.35-.3.29Z"/><path class="cls-1" d="M537.85,144.48c0,.23-.07.33-.3.3Z"/><path class="cls-1" d="M538.14,144.2c0,.23-.07.33-.3.3Z"/><path class="cls-1" d="M538.43,143.91q0,.34-.3.3Z"/><path class="cls-1" d="M417.46,164.57a.91.91,0,0,1-.6-.88C417.38,163.77,417.61,164,417.46,164.57Z"/><path class="cls-1" d="M509.59,201.56c-.54-.18-.11.67-.69.48-.19-.13-.14-.45-.09-.7.1-.5-.37-1.33.36-1.43.5-.07.54.76.66,1.24Z"/><path class="cls-1" d="M509.84,201.15l.24-.07.36.26c-.07.31,0,.73-.47.75-.28,0-.27-.33-.37-.53Z"/><path class="cls-1" d="M517.36,160.91l.14.5-.13.75a4.34,4.34,0,0,1-.94.31c-.76.07-1.14-.43-1.27-1.09s.44-.67.9-.77c.21,0,.39-.25.59-.38h0A1.1,1.1,0,0,0,517.36,160.91Z"/></g></g></svg>